<svg width="1917" height="621" fill="none" xmlns="http://www.w3.org/2000/svg"><path fill-rule="evenodd" clip-rule="evenodd" d="M1231.07 621c14.14-35.062 21.93-73.371 21.93-113.5 0-167.618-135.88-303.5-303.5-303.5C781.882 204 646 339.882 646 507.5c0 40.129 7.788 78.438 21.935 113.5h563.135z" fill="#506AE4"/><path d="M1047.74 388.845l-177.376 115.78h28.145v12.565h3.564v6.306h3.747v97.184h283.83v-97.184h3.79v-6.306h3.52v-12.565h28.15l-177.37-115.78z" fill="#4559B3"/><path d="M411.261 219.241v25.679h11.469v375.76h468.055V244.92h11.423v-25.679H411.261zM309.646 422.2V304.5h11.148v-16.859H191.581V304.5h11.194v117.7h-77.583v19.327h4.432v17.271h5.346V620.68h207.116V458.798h5.392v-17.271h4.386V422.2h-42.218z" fill="#4559B3"/><path d="M184.408 468.987v-89.92h11.194v-12.884H66.389v12.884h11.148v89.92H0v14.758h4.386v13.25h5.346V620.68h207.116V496.995h5.392v-13.25h4.386v-14.758h-42.218zm829.922-147.581V215.403H777.063v106.003H669.05v26.363h8.818v23.623h10.738V620.68h414.234V371.392h10.74v-23.623h8.77v-26.363h-108.02zM621.256 136.815H337.562V620.68h283.694V136.815z" fill="#4559B3"/><path d="M754.948 79.84v14.94h6.351v14.941h3.518V620.68h211.045V109.721h3.519V94.78h6.351V79.84H754.948z" fill="#4559B3"/><path d="M973.121 410.64h-44.64v74.064h44.64V410.64zm-759.289-34.862h-35.136v57.067h35.136v-57.067zm-98.783-96.454h-13.296v298.224h13.296V279.324zm182.762-22.342h-40.299v232.52h40.299v-232.52zm-133.78 84.162H124.28v59.535h39.751v-59.535zM524.255 14.958h-26.958v204.74h26.958V14.958zm-80.416 44.686h-32.578v85.67h32.578v-85.67zM868.81 32.778h-93.255v105.317h93.255V32.778zm42.628 22.16h-25.495v62.367h25.495V54.937z" fill="#4559B3"/><path d="M916.875 39.997h-10.92v154.571h10.92V39.997zM583.744 47.81v14.94h6.351v14.942h3.472V588.65h211.091V77.691h3.518v-14.94h6.351V47.81H583.744zm-39.795 44.822h-93.255V197.95h93.255V92.632z" fill="#4559B3"/><path d="M740.236 22.908h-25.495v62.368h25.495V22.908zM957.494.748h-10.92V155.32h10.92V.748zm68.906 182.9h-19.97v207.939h19.97V183.648z" fill="#4559B3"/><path d="M1102.11 257.667h-89.19v72.831h89.19v-72.831zm70.82 153.704h-35.64v78.04h35.64v-78.04zm585.11 81.329l-158.91 63.921h25.22v6.945h3.2v3.473h3.33v53.641h254.32v-53.641h3.38v-3.473h3.15v-6.945H1917L1758.04 492.7z" fill="#4559B3"/><path d="M1140.08 373.265v15.855h11.42v231.56h468.05V389.12h11.43v-15.855h-490.9zm-101.67 125.101v-72.557h11.2v-10.372H920.395v10.372h11.148v72.557h-77.537v11.88h4.386v10.691h5.346v99.743H1070.9v-99.743h5.35v-10.691h4.38v-11.88h-42.22z" fill="#4559B3"/><path d="M913.221 527.197v-55.423h11.148v-7.95H795.156v7.95h11.148v55.423h-77.537v9.092h4.386v8.179h5.392v76.212h207.116v-76.212h5.346v-8.179h4.432v-9.092h-42.218zm829.929-90.97v-65.338h-237.32v65.338h-108.01v16.266h8.82v14.529h10.73V620.68h414.24V467.022h10.73v-14.529h8.82v-16.266h-108.01zm-686.37-132.961v11.24h9.55V620.68h237.32V314.506h9.59v-11.24h-256.46z" fill="#4559B3"/><path d="M1435.97 287.366v9.184h7.67v9.184h4.21V620.68h254.77V305.734h4.2v-9.184h7.68v-9.184h-278.53z" fill="#4559B3"/><path d="M1701.89 491.238h-44.6v45.645h44.6v-45.645zm-788.533-15.809h-35.136v35.182h35.136v-35.182zm93.073-131.955h-13.297v183.814h13.297V343.474zm50.26 23.805h-40.3v143.332h40.3V367.279zm-70.365 33.811h-39.751v36.69h39.751v-36.69z" fill="#4559B3"/><path d="M1039.87 264.612h-26.95v126.152h26.95V264.612zm132.78 10.281h-32.57v52.772h32.57v-52.772zm424.93-16.54h-93.26v64.926h93.26v-64.926zm42.63 13.661h-25.5v38.426h25.5v-38.426zm27.04-39.614h-10.92v95.265h10.92V232.4zm-423.69 35.228v9.184h6.36v9.184h3.51v314.946h211.05V285.996h3.52v-9.184h6.35v-9.184h-230.79z" fill="#4559B3"/><path d="M1426.37 238.615h-93.25v64.926h93.25v-64.926zm42.63 13.661h-25.49v38.426H1469v-38.426zm-271.95-22.48h-10.92v95.265h10.92v-95.265zm620.34 134.559h-19.96v128.162h19.96V364.355z" fill="#4559B3"/><path d="M1830.87 396.978h-108.65v44.914h108.65v-44.914zm29.66 89.554h-35.64v48.112h35.64v-48.112z" fill="#4559B3"/><path d="M1076.69 129.021c-3.9-3.349-35.44-4.668-53.57-10.94C995.094 108.4 968.667 92 956.855 92c-11.813 0-38.239 16.4-66.268 26.081-18.125 6.272-54.801 11.813-58.454 15.425-5.338 5.338-11.468 30.181-25.168 53.665-14.106 24.112-28.415 30.302-29.146 39.476-.731 9.174 15.04 25.716 38.056 66.248 3.207 5.663 21.149 7.753 21.149 7.753h239.666s17.78-2.192 21.14-7.753c19.61-32.474 38.77-57.094 38.06-66.248-.71-9.153-14.9-16.237-29.15-39.476-14.24-23.24-26.32-54.923-30.05-58.15z" fill="#000E54"/><path d="M1071.86 204.118c-5.91-7.57-13.56-40.167-19.47-48.407-2.88-4.059-23 48.407-99.026 48.407-72.804 0-105.319-52.547-106.699-52.547-2.963 0-13.558 27.704-18.876 40.085-5.317 12.381-27.116 35.377-31.825 37.143-4.708 1.766 8.85 17.678 15.324 28.882 6.475 11.204 9.438 28.882 10.615 33.388 1.177 4.506 15.121 9.62 15.121 9.62h239.666s25.81-53.623 24.64-60.098c-1.18-6.474-23.59-28.882-29.47-36.473z" fill="#1A0045"/><path d="M956.855 204.118c-99.453 0-119.75 40.898-119.75 40.898v55.673h239.585v-55.673s-20.44-40.898-119.835-40.898z" fill="#001D7A"/><path d="M956.855 268.276s-100.793 3.511-119.75 32.474c0 0 9.174 42.298 119.75 42.298 110.575 0 119.745-42.298 119.745-42.298-18.95-28.963-119.745-32.474-119.745-32.474z" fill="#0B0B0B"/><path d="M1031.95 280.068c-46.68-8.626-71.523-2.537-71.523-2.537l10.615 57.967s33.038 2.577 63.668-8.261c30.63-10.838 38.57-28.679 38.57-28.679s5.44-9.844-41.33-18.49z" fill="#F9FCFB"/><path d="M837.024 279.56v21.129c19.039-20.743 119.75-23.28 119.75-23.28s100.796 2.537 119.746 23.28V279.56s-22.2-20.113-119.746-20.113c-97.545 0-119.75 20.113-119.75 20.113z" fill="#B26D02"/><path d="M957.241 92.082h.588a2.226 2.226 0 00-.588 0zm119.449 36.939c-3.9-3.349-35.44-4.668-53.57-10.94-27.316-9.438-53.052-25.188-65.291-25.98 2.192.406 11.975 3.755 50.741 28.781 17.76 11.468 49.32 14.208 56 18.856 6.68 4.647 23.58 42.46 32.23 53.461 8.65 11 30.26 29.085 30.26 34.504 0 5.419-31.05 66.674-31.3 67.181l2.85-3.308c19.34-31.866 37.97-55.958 37.28-64.949-.69-8.991-14.9-16.237-29.15-39.477-14.24-23.239-26.32-54.902-30.05-58.129z" fill="#F4EDFF"/><path d="M1077.54 274.973c-3.9 0-7.07 6.251-7.07 13.964s3.17 13.944 7.07 13.944c3.89 0 7.08-6.251 7.08-13.944 0-7.692-3.16-13.964-7.08-13.964zm-240.516 0c-3.897 0-7.084 6.251-7.084 13.964s3.187 13.944 7.084 13.944 7.083-6.251 7.083-13.944c0-7.692-3.186-13.964-7.083-13.964zm123.403-15.526v18.084s36.797 2.435 54.233 4.364c17.43 1.928 44.04 8.991 44.04 8.991v-19.789s-8.38-4.323-38.07-8.119a539.81 539.81 0 00-60.203-3.531zm24.214-130.426c-3.88-.274-7.742-.762-11.569-1.461a75.786 75.786 0 01-14.005-4.749 4.06 4.06 0 00-3.085 0 76.718 76.718 0 01-14.207 4.282c-3.847.581-7.723.947-11.61 1.096a4.448 4.448 0 00-4.262 4.181c-.508 8.525-1.056 28.415 4.161 40.106 8.321 18.612 20.986 24.356 24.964 25.716a3.832 3.832 0 002.476 0c4.06-1.258 16.867-6.556 25.777-24.904 5.582-11.508 5.683-31.419 5.44-39.943a4.426 4.426 0 00-4.08-4.324z" fill="#FFA61D"/><path d="M941.815 126.991c-3.846.581-7.722.947-11.609 1.096a4.448 4.448 0 00-4.263 4.181c-.507 8.525-1.055 28.416 4.161 40.106 8.322 18.612 20.987 24.356 24.965 25.716a3.796 3.796 0 001.786.142v-75.645a3.168 3.168 0 00-.873.162 76.678 76.678 0 01-14.167 4.242z" fill="#B26D02"/><path d="M956.855 619.548v-31.825l-70.206-83.216s-90.218 2.923-129.675 30.445c-34.504 24.031-37.285 84.535-37.285 84.535l237.166.061z" fill="#000844"/><path d="M886.649 504.568l-24.336 1.887 47.433 113.093 47.109-31.785-70.206-83.195z" fill="#1A0045"/><path d="M942.769 552.914l14.086 34.849-70.206-83.195 56.12 48.346z" fill="#000"/><path d="M859.391 506.78l15.161 35.559-19.606 19.607-103.512 17.455-8.708-30.445a102.324 102.324 0 0114.208-13.944c7.956-6.15 102.457-28.232 102.457-28.232z" fill="#1A0045"/><path d="M858.132 503.816l-106.658 20.601 15.141 37.265 107.937-19.343-16.42-38.523zm10.291 2.01l44.084 98.519 30.262-51.431-65.822-56.709-8.524 9.621z" fill="#001D7A"/><path d="M796.776 550.905a4.057 4.057 0 002.029-5.217l-9.498-22.914a4.06 4.06 0 00-5.217-2.132 4.065 4.065 0 00-2.131 5.217l9.601 22.894a4.06 4.06 0 005.216 2.152zm15.222-2.253a4.057 4.057 0 002.151-5.217l-9.62-22.894a4.063 4.063 0 00-5.216-2.03 4.06 4.06 0 00-2.132 5.216l9.621 22.895a4.064 4.064 0 002.194 2.049c.966.377 2.041.37 3.002-.019zm107.978 10.331c2.03 1.786 1.319 5.744-1.502 8.849-2.821 3.105-6.657 4.181-8.646 2.395-1.989-1.786-1.299-5.744 1.502-8.849 2.801-3.106 6.677-4.1 8.646-2.395z" fill="#B26D02"/><path d="M956.855 619.547v-31.825l71.035-82.911s89.31 2.639 128.8 30.161c34.51 24.031 37.31 84.535 37.31 84.535l-237.145.04z" fill="#000854"/><path d="M1027.91 506.78l23.49-.325-47.44 113.093-47.105-31.785 71.055-80.983z" fill="#1A0045"/><path d="M970.92 552.914l-14.065 34.849 71.055-83.947-56.99 49.098z" fill="#000"/><path d="M1054.3 506.78l-15.14 35.559 19.6 19.607 103.52 17.455 8.7-30.445a101.823 101.823 0 00-14.2-13.944c-7.98-6.15-102.48-28.232-102.48-28.232z" fill="#1A0045"/><path d="M1036.76 496.205l8.51 9.621-44.07 98.519-30.28-51.431 65.84-56.709zm18.82 7.611l106.66 20.601-15.15 37.265-107.93-19.343 16.42-38.523z" fill="#001D7A"/><path d="M1116.91 550.905a4.03 4.03 0 01-2.05-2.203c-.38-.971-.37-2.05.02-3.014l9.52-22.914a4.062 4.062 0 015.22-2.132 4.084 4.084 0 012.06 2.203c.37.971.36 2.05-.03 3.014l-9.62 22.894a4.05 4.05 0 01-2.13 2.086c-.95.4-2.02.423-2.99.066zm-15.22-2.253a4.084 4.084 0 01-2.06-2.203c-.37-.971-.36-2.05.03-3.014l9.6-22.894a4.05 4.05 0 012.2-2.058 4.083 4.083 0 013.02.028 4.08 4.08 0 012.12 2.178c.39.973.4 2.062.01 3.038l-9.6 22.895a4.046 4.046 0 01-2.25 2.103c-.99.38-2.09.353-3.07-.073zm-107.977 10.331c-2.029 1.786-1.299 5.744 1.502 8.849 2.801 3.105 6.675 4.181 8.645 2.395 1.97-1.786 1.32-5.744-1.48-8.849-2.801-3.106-6.678-4.1-8.667-2.395z" fill="#FFA61D"/><path d="M971.489 382.728c-2.294-2.821-9.56-10.148-15.365-10.148s-12.482 7.266-14.573 10.148l-2.476-1.401c.325-.446 8.504-11.244 17.049-11.244s17.415 10.757 17.8 11.204l-2.435 1.441z" fill="#0B0B0B"/><path d="M968.526 372.579c0 13.376 26.385 51.229 53.214 51.229 17.8 0 48.71-42.339 30.77-57.886-9.44-8.2-83.984-12.259-83.984 6.657z" fill="#0B0B0B"/><path d="M1005.95 359.103l15.96 64.664c17.84-.263 48.46-42.359 30.6-57.865-4.79-4.161-26.44-7.246-46.56-6.799zm-60.725 13.476c0 13.376-26.386 51.229-53.197 51.229-17.8 0-48.712-42.339-30.77-57.886 9.377-8.2 83.967-12.259 83.967 6.657z" fill="#2A272C"/><path d="M907.758 359.103l-15.953 64.665c-17.841-.264-48.469-42.359-30.608-57.865 4.872-4.161 26.447-7.246 46.561-6.8z" fill="#0B0B0B"/><circle cx="507" cy="463.848" r="105" fill="#506AE4"/><path d="M487.477 422.42h-1.025a5.946 5.946 0 00-5.945 5.946v8.122a5.946 5.946 0 005.945 5.946h1.025a5.946 5.946 0 005.945-5.946v-8.122a5.946 5.946 0 00-5.945-5.946zm-7.336-20.927v1.024a5.945 5.945 0 005.945 5.945h8.123a5.945 5.945 0 005.945-5.945v-1.024a5.946 5.946 0 00-5.945-5.946h-8.123a5.946 5.946 0 00-5.945 5.946z" stroke="#BABABA" stroke-width="2.49" stroke-miterlimit="10"/><path d="M486.982 402.005h-.219a3.165 3.165 0 00-3.165 3.164v19.849a3.165 3.165 0 003.165 3.165h.219a3.165 3.165 0 003.165-3.165v-19.849a3.165 3.165 0 00-3.165-3.164z" fill="#BABABA"/><path d="M482.683 441.702v4.829a3.092 3.092 0 003.092 3.092h.201a3.092 3.092 0 003.092-3.092v-4.829a3.092 3.092 0 00-3.092-3.092h-.201a3.092 3.092 0 00-3.092 3.092zm20.27-36.423h4.83a3.091 3.091 0 003.091-3.091v-.202a3.091 3.091 0 00-3.091-3.091h-4.83a3.091 3.091 0 00-3.091 3.091v.202a3.091 3.091 0 003.091 3.091z" stroke="#BABABA" stroke-width="1.4" stroke-miterlimit="10"/><path d="M484.238 544.585c21.571 0 39.057-17.486 39.057-39.057 0-21.57-17.486-39.056-39.057-39.056-21.57 0-39.057 17.486-39.057 39.056 0 21.571 17.487 39.057 39.057 39.057z" stroke="#C9C9C9" stroke-width="8.87" stroke-miterlimit="10"/><path d="M472.494 476.295s-10.812 5.122-14.507 12.513c-3.695 7.391-8.25 17.928-1.683 30.715 7.738 15.001 24.166 16.812 27.294 16.245 3.128-.567 7.94-.348 9.824 4.28 1.884 4.629.292 9.714-5.488 12.275-4.372 1.921-15.934-.329-23.05-3.183-7.116-2.853-20.837-15.256-25.611-27.312-5.123-12.934-1.263-31.392 4.555-40.978 5.817-9.586 17.36-16.08 17.36-16.08l11.306 11.525z" fill="#DBDBDB"/><path d="M506.977 450.885h-43.978a3.66 3.66 0 00-3.658 3.659v18.074a3.659 3.659 0 003.658 3.659h43.978a3.659 3.659 0 003.659-3.659v-18.074a3.66 3.66 0 00-3.659-3.659z" fill="#DBDBDB"/><path d="M464.811 452.202a32.34 32.34 0 006.403-4.372c2.14-2.158 4.884-1.518 9.293-.823 3.665.607 7.42.363 10.976-.713 2.561-.842 6.183-1.409 9.147 5.908h-35.819z" fill="#DBDBDB"/><path d="M469.091 463.27c.004.468-.131.926-.389 1.316a2.355 2.355 0 01-3.633.378 2.366 2.366 0 01-.52-2.574 2.364 2.364 0 012.182-1.461c.309-.003.616.056.902.173a2.325 2.325 0 011.278 1.268c.119.285.18.591.18.9zm18.769 80.254a2.344 2.344 0 01-1.445 2.164 2.347 2.347 0 01-2.552-.508 2.339 2.339 0 01-.508-2.552 2.345 2.345 0 012.164-1.445 2.34 2.34 0 012.341 2.341zm20.489-80.254a2.344 2.344 0 01-1.445 2.163 2.339 2.339 0 01-3.193-1.706 2.347 2.347 0 01.996-2.404 2.341 2.341 0 013.642 1.947zm-32.123-10.244a1.61 1.61 0 100-3.22 1.61 1.61 0 000 3.22zm18.677-1.61a1.608 1.608 0 01-2.748 1.156 1.604 1.604 0 01-.345-1.762 1.604 1.604 0 011.502-.986 1.592 1.592 0 011.591 1.592z" fill="#BABABA"/><path d="M500.026 462.209a2.556 2.556 0 01-1.581 2.366 2.56 2.56 0 01-3.346-3.346 2.56 2.56 0 014.177-.831c.48.48.75 1.132.75 1.811z" fill="#303030"/><path d="M497.611 461.66h-.293c-.626 0-1.134.508-1.134 1.134v3.915c0 .627.508 1.134 1.134 1.134h.293c.626 0 1.134-.507 1.134-1.134v-3.915c0-.626-.508-1.134-1.134-1.134z" fill="#303030"/><path d="M566.45 442.434c21.571 0 39.057-17.487 39.057-39.057 0-21.571-17.486-39.057-39.057-39.057-21.57 0-39.056 17.486-39.056 39.057 0 21.57 17.486 39.057 39.056 39.057z" stroke="#C9C9C9" stroke-width="8.87" stroke-miterlimit="10"/><path d="M537.217 415.121s5.122 10.812 12.513 14.507c7.391 3.695 20.123 7.958 32.672.531 12.934-7.629 14.855-23.014 14.288-26.142-.567-3.128-.348-7.939 4.262-9.824 4.61-1.884 9.732-.292 12.293 5.488 1.921 4.373.586 13.922-3.183 23.05-3.768 9.129-15.147 21.166-27.312 25.611-16.3 5.964-31.3 1.116-40.996-4.555a43.005 43.005 0 01-16.08-17.36l11.543-11.306z" fill="#DBDBDB"/><path d="M511.807 380.638v43.978a3.659 3.659 0 003.659 3.658h18.074a3.659 3.659 0 003.659-3.658v-43.978a3.659 3.659 0 00-3.659-3.659h-18.074a3.659 3.659 0 00-3.659 3.659z" fill="#DBDBDB"/><path d="M513.417 422.805a36.373 36.373 0 00-4.537-6.403c-2.14-2.141-1.591-4.885-.878-9.293a24.43 24.43 0 00-.603-10.977c-.86-2.561-1.299-6.183 6.018-9.146v35.819z" fill="#DBDBDB"/><path d="M524.192 418.524a2.36 2.36 0 11-2.396 2.323 2.333 2.333 0 01.711-1.663 2.345 2.345 0 011.685-.66zm80.254-18.769a2.344 2.344 0 012.163 1.445 2.339 2.339 0 01-1.706 3.193 2.347 2.347 0 01-2.404-.996 2.345 2.345 0 01.291-2.957 2.342 2.342 0 011.656-.685zm-80.254-20.489a2.342 2.342 0 11-.035 4.684 2.342 2.342 0 01.035-4.684zm-11.854 33.733a1.61 1.61 0 100-3.219 1.61 1.61 0 000 3.219zm0-17.086a1.61 1.61 0 100-3.219 1.61 1.61 0 000 3.219z" fill="#BABABA"/><path d="M523.113 387.589a2.566 2.566 0 012.366 1.581 2.56 2.56 0 01-1.866 3.492 2.559 2.559 0 01-3.061-2.511 2.533 2.533 0 011.578-2.372c.312-.127.646-.192.983-.19z" fill="#303030"/><path d="M522.582 390.37v-.275a1.15 1.15 0 011.153-1.152h3.896a1.133 1.133 0 011.134 1.134v.293a1.133 1.133 0 01-1.134 1.134h-3.896a1.154 1.154 0 01-1.153-1.134z" fill="#303030"/><circle cx="1394.27" cy="462.296" r="105" fill="#506AE4"/><path d="M1483.93 389.393c-1.5-5.512-5.03-8.801-11.02-8.783-2.1.097-4.1.973-5.59 2.457a8.506 8.506 0 00-2.5 5.573c.15 3.675 4.54 3.932 5.52 2.113.97-1.819 2.5-3.16 4.22-2.113 3.48 2.113 1.51 6.358-2.11 7.056-2.15.405-16.43 3.528-33.32-6.45-16.88-9.977-35.04-15.123-44.1-12.697-9.07-2.426-26.94 2.72-43.82 12.697-16.89 9.978-30.91 6.855-33.08 6.45-3.67-.698-5.6-4.943-2.13-7.056 1.75-1.047 3.33.312 4.23 2.113.9 1.801 5.29 1.525 5.42-2.113a8.514 8.514 0 00-8.16-8.03c-6.05 0-9.61 3.344-11.14 8.783-1.52 5.44.55 18.909 17.48 21.022 16.92 2.113 26.62-2.72 42.35-9.371a49.62 49.62 0 0128.76-3.437 50.521 50.521 0 0129.03 3.437c15.72 6.651 25.55 11.484 42.49 9.371 16.94-2.113 19-15.564 17.47-21.022z" fill="#FFB700"/><path d="M1395.68 530.646c27.74 0 50.23-6.376 50.23-14.241 0-7.865-22.49-14.241-50.23-14.241-27.75 0-50.24 6.376-50.24 14.241 0 7.865 22.49 14.241 50.24 14.241z" fill="#FFC73F"/><path d="M1427.54 512.73c0-4.998-14.26-9.041-31.86-9.041-17.61 0-31.87 4.043-31.87 9.041s14.26 9.041 31.87 9.041c17.6 0 31.86-4.006 31.86-9.041z" fill="orange"/><path d="M1422.06 502.734l5.48 11.025h-63.51l5.22-11.025h52.81z" fill="orange"/><path d="M1422.32 503.689c0-4.171-11.92-7.552-26.64-7.552s-26.65 3.381-26.65 7.552c0 4.171 11.93 7.571 26.65 7.571 14.72 0 26.64-3.4 26.64-7.571z" fill="#FFC73F"/><path d="M1394.13 503.193c5.18 0 9.37-4.064 9.37-9.078 0-5.013-4.19-9.077-9.37-9.077-5.17 0-9.37 4.064-9.37 9.077 0 5.014 4.2 9.078 9.37 9.078z" fill="orange"/><path d="M1393.91 489.154c7.81.643 15.49-7.626 14.13-31.827-.55-9.665.46-32.579-7.7-46.912-2.46-4.3-4.72-5.642-6.61-5.623-3.14 0-5.2 3.822-5.2 3.822s-5.15 5.512-8.16 27.563c-2.59 18.927-3.93 42.153 4.54 49.853 2.61 2.389 7.02 2.885 9 3.179" fill="#FFB700"/><path d="M1380.37 397.699s-3.68 5.071 4.54 9.188c3.82 1.837 15.12.9 15.12.9s11.49-2.756 6.95-10.07l-26.61-.018z" fill="#EE9701"/><path d="M1400.99 410.691c-4.95.808-10 .808-14.94 0-.48-.078-.9-.336-1.18-.72a1.833 1.833 0 01-.35-1.339c.11-.455.38-.853.77-1.113.39-.259.87-.361 1.33-.283 4.55.752 9.2.752 13.76 0 .46-.078.93.024 1.32.283.39.26.67.658.77 1.113a1.8 1.8 0 01-.33 1.328c-.27.383-.69.645-1.15.731z" fill="orange"/><path d="M1400.36 505.067a25.572 25.572 0 01-12.47 0c-.5-.224-.91-.614-1.15-1.104a2.39 2.39 0 01-.18-1.579c.19-1.231.99-2.021 1.84-1.837 3.78.94 7.74.94 11.52 0 .83-.202 1.64.588 1.84 1.837.12.54.05 1.107-.21 1.599-.25.491-.67.876-1.19 1.084z" fill="#EE9701"/><path d="M1403.12 371.973h-19.08a2.863 2.863 0 00-2.86 2.867v.165a2.863 2.863 0 002.86 2.867h19.08c1.58 0 2.86-1.283 2.86-2.867v-.165a2.863 2.863 0 00-2.86-2.867z" fill="orange"/><path d="M1412.1 376.347h-37.15c-1.02 0-1.84.822-1.84 1.837v19.111c0 1.015.82 1.837 1.84 1.837h37.15c1.02 0 1.84-.822 1.84-1.837v-19.111c0-1.015-.82-1.837-1.84-1.837z" fill="#FFC73F"/><path d="M1394.43 391.819c2.25 0 4.08-1.826 4.08-4.079 0-2.253-1.83-4.08-4.08-4.08a4.076 4.076 0 00-4.08 4.08 4.075 4.075 0 004.08 4.079z" fill="#FFA502"/><path d="M1467.29 394.024h-.11c-1.1 0-1.99.888-1.99 1.984v24.366c0 1.096.89 1.985 1.99 1.985h.11c1.09 0 1.98-.889 1.98-1.985v-24.366c0-1.096-.89-1.984-1.98-1.984zm-146.27 0h-.11c-1.1 0-1.99.888-1.99 1.984v24.366c0 1.096.89 1.985 1.99 1.985h.11c1.09 0 1.98-.889 1.98-1.985v-24.366c0-1.096-.89-1.984-1.98-1.984z" fill="#EE9700"/><path d="M1402.82 371.973h-18.72c-1.07 0-1.95-2.628-1.95-3.675l3.9-9.298a1.87 1.87 0 01.57-1.34 1.849 1.849 0 011.38-.498h11.02c.25-.015.5.022.74.107a1.862 1.862 0 011.06 1.001c.1.231.15.479.15.73l3.88 9.298c-.08 1.103-1 3.675-2.03 3.675zM1388.38 340h8.82c1.49 0 2.92.592 3.98 1.647a5.635 5.635 0 011.64 3.976v.386c0 2.134-.84 4.182-2.35 5.691a8.056 8.056 0 01-5.69 2.357h-2.87a8.048 8.048 0 01-8.05-8.048v-1.489c0-1.199.48-2.348 1.32-3.196a4.53 4.53 0 013.2-1.324z" fill="#FFB700"/><path d="M1398.36 353.157h-9.54a2.863 2.863 0 00-2.86 2.866v.166a2.863 2.863 0 002.86 2.866h9.54c1.58 0 2.87-1.283 2.87-2.866v-.166a2.871 2.871 0 00-2.87-2.866z" fill="#EE9701"/><path d="M1320.83 467.783c1.23 0 2.23-1.012 2.23-2.26 0-1.248-1-2.26-2.23-2.26s-2.22 1.012-2.22 2.26c0 1.248.99 2.26 2.22 2.26z" stroke="#FFB700" stroke-width=".99" stroke-miterlimit="10"/><path d="M1345.33 466.662c-8.31-.9-24.3-1.139-24.3-1.139s-16.06.239-24.36 1.139c-8.31.901-10.07 1.838-7.99 4.539 2.07 2.701 8.39 9.757 11.63 11.154 3.23 1.396 20.72 1.47 20.72 1.47s17.41 0 20.64-1.47c3.23-1.47 9.5-8.434 11.58-11.154 2.07-2.72.38-3.62-7.92-4.539z" fill="#FFB700"/><path d="M1321.05 472.248c17.23 0 31.19-1.25 31.19-2.793 0-1.542-13.96-2.793-31.19-2.793-17.22 0-31.18 1.251-31.18 2.793 0 1.543 13.96 2.793 31.18 2.793z" fill="#EE9701"/><path d="M1320.67 423.37h-.08c-.82 0-1.48.666-1.48 1.488v1.433c0 .822.66 1.489 1.48 1.489h.08c.82 0 1.49-.667 1.49-1.489v-1.433a1.49 1.49 0 00-1.49-1.488z" stroke="#FFC73F" stroke-width=".74" stroke-miterlimit="10"/><path d="M1320.65 426.898h-.06c-.46 0-.84.378-.84.845v3.896c0 .466.38.845.84.845h.06a.84.84 0 00.84-.845v-3.896a.838.838 0 00-.84-.845z" fill="#FFC73F"/><path d="M1320.67 431.308h-.08c-.82 0-1.48.666-1.48 1.489v1.414c0 .822.66 1.489 1.48 1.489h.08c.82 0 1.49-.667 1.49-1.489v-1.414a1.49 1.49 0 00-1.49-1.489z" stroke="#FFC73F" stroke-width=".74" stroke-miterlimit="10"/><path d="M1320.65 434.836h-.06c-.46 0-.84.379-.84.845v3.896c0 .467.38.845.84.845h.06c.47 0 .84-.378.84-.845v-3.896a.84.84 0 00-.84-.845z" fill="#FFC73F"/><path d="M1320.67 439.118h-.08c-.82 0-1.48.666-1.48 1.488v1.433c0 .823.66 1.489 1.48 1.489h.08c.82 0 1.49-.666 1.49-1.489v-1.433a1.49 1.49 0 00-1.49-1.488z" stroke="#FFC73F" stroke-width=".74" stroke-miterlimit="10"/><path d="M1320.65 442.646h-.06c-.46 0-.84.378-.84.845v3.896c0 .466.38.845.84.845h.06a.84.84 0 00.84-.845v-3.896a.838.838 0 00-.84-.845z" fill="#FFC73F"/><path d="M1320.67 447.056h-.08c-.82 0-1.48.666-1.48 1.488v1.415c0 .822.66 1.488 1.48 1.488h.08c.82 0 1.49-.666 1.49-1.488v-1.415a1.49 1.49 0 00-1.49-1.488z" stroke="#FFC73F" stroke-width=".74" stroke-miterlimit="10"/><path d="M1320.65 450.584h-.06c-.46 0-.84.379-.84.845v3.896c0 .467.38.845.84.845h.06c.47 0 .84-.378.84-.845v-3.896a.84.84 0 00-.84-.845z" fill="#FFC73F"/><path d="M1320.67 454.939h-.08c-.82 0-1.48.666-1.48 1.488v1.415c0 .822.66 1.489 1.48 1.489h.08c.82 0 1.49-.667 1.49-1.489v-1.415a1.49 1.49 0 00-1.49-1.488z" stroke="#FFC73F" stroke-width=".74" stroke-miterlimit="10"/><path d="M1320.65 458.467h-.06c-.46 0-.84.379-.84.846v3.895c0 .467.38.845.84.845h.06c.47 0 .84-.378.84-.845v-3.895a.84.84 0 00-.84-.846z" fill="#FFC73F"/><path d="M1336.45 440.532c-.16.112-.34.192-.53.234a1.44 1.44 0 01-.57.012c-.2-.034-.38-.106-.54-.211a1.53 1.53 0 01-.42-.402l-.82-1.158a1.467 1.467 0 01-.24-1.113c.07-.388.28-.734.6-.963v0a1.494 1.494 0 011.66-.05c.16.104.31.24.42.399l.83 1.176c.22.328.3.729.23 1.117-.07.388-.29.733-.62.959v0z" stroke="#FFC73F" stroke-width=".74" stroke-miterlimit="10"/><path d="M1335.93 439.826l-.04.032a.846.846 0 00-.21 1.177l2.24 3.187c.27.382.8.473 1.18.205l.05-.032a.844.844 0 00.2-1.177l-2.24-3.187a.848.848 0 00-1.18-.205z" fill="#FFC73F"/><path d="M1338.48 443.429l-.06.043a1.493 1.493 0 00-.36 2.074l.82 1.156c.47.672 1.4.833 2.07.359l.06-.042c.68-.474.84-1.402.36-2.074l-.81-1.157a1.496 1.496 0 00-2.08-.359z" stroke="#FFC73F" stroke-width=".74" stroke-miterlimit="10"/><path d="M1340.5 446.329l-.05.031a.845.845 0 00-.2 1.178l2.24 3.186a.85.85 0 001.18.206l.04-.032a.847.847 0 00.21-1.178l-2.24-3.186a.848.848 0 00-1.18-.205z" fill="#FFC73F"/><path d="M1327.41 427.412a1.518 1.518 0 01-2.08-.367l-.82-1.176c-.22-.323-.31-.72-.24-1.105s.29-.727.61-.953v0c.15-.112.33-.192.52-.234a1.49 1.49 0 011.12.199c.16.105.3.242.41.402l.83 1.176c.12.157.2.336.24.525.05.19.05.386.02.578-.03.192-.1.376-.21.54-.1.164-.24.305-.4.415v0z" stroke="#FFC73F" stroke-width=".74" stroke-miterlimit="10"/><path d="M1326.92 426.728l-.05.031a.855.855 0 00-.21 1.177l2.24 3.192c.27.382.79.475 1.18.208l.04-.032a.846.846 0 00.21-1.177l-2.24-3.192a.836.836 0 00-1.17-.207z" fill="#FFC73F"/><path d="M1329.44 430.358l-.06.042a1.492 1.492 0 00-.36 2.073l.82 1.173c.48.672 1.41.834 2.08.361l.06-.042c.67-.473.83-1.401.36-2.073l-.82-1.173a1.498 1.498 0 00-2.08-.361z" stroke="#FFC73F" stroke-width=".74" stroke-miterlimit="10"/><path d="M1331.47 433.199l-.05.031a.845.845 0 00-.2 1.178l2.24 3.186c.27.382.8.474 1.18.205l.04-.031a.847.847 0 00.21-1.178l-2.24-3.186a.848.848 0 00-1.18-.205z" fill="#FFC73F"/><path d="M1342.36 452.535l-.07.042a1.488 1.488 0 00-.37 2.069l.81 1.16c.47.674 1.39.841 2.07.372l.06-.042c.67-.468.84-1.395.37-2.069l-.81-1.16a1.475 1.475 0 00-2.06-.372z" stroke="#FFC73F" stroke-width=".74" stroke-miterlimit="10"/><path d="M1345 452.713l-.05.032a.844.844 0 00-.2 1.177l2.23 3.192c.27.382.79.475 1.18.208l.04-.032a.846.846 0 00.21-1.177l-2.23-3.192a.85.85 0 00-1.18-.208z" fill="#FFC73F"/><path d="M1350.43 453.73l-.06.043c-.67.477-.83 1.41-.35 2.084l.83 1.175a1.49 1.49 0 002.08.357l.06-.043c.68-.476.84-1.409.36-2.083l-.83-1.176a1.502 1.502 0 00-2.09-.357z" stroke="#FFC73F" stroke-width=".74" stroke-miterlimit="10"/><path d="M1349.56 459.134l-.05.031a.855.855 0 00-.21 1.177l2.24 3.194c.26.383.79.476 1.17.209l.05-.032a.855.855 0 00.21-1.177l-2.23-3.193a.849.849 0 00-1.18-.209z" fill="#FFC73F"/><path d="M1352.07 462.712l-.06.043c-.67.472-.83 1.4-.36 2.073l.82 1.173c.48.673 1.4.835 2.08.363l.06-.043c.67-.472.83-1.4.36-2.073l-.82-1.173a1.496 1.496 0 00-2.08-.363z" stroke="#FFC73F" stroke-width=".74" stroke-miterlimit="10"/><path d="M1352.26 470.646l.05.029c.4.258.94.141 1.19-.261l2.5-3.898a.862.862 0 00-.26-1.193l-.05-.03a.86.86 0 00-1.19.261l-2.5 3.898a.863.863 0 00.26 1.194z" fill="#FFB700"/><path d="M1305.05 439.889c.16.112.34.191.53.234.19.042.38.046.57.012.2-.034.38-.106.54-.211.16-.106.31-.242.42-.403l.82-1.176c.11-.158.19-.338.24-.528.04-.19.04-.386.01-.577a1.695 1.695 0 00-.21-.538 1.55 1.55 0 00-.4-.415 1.532 1.532 0 00-1.12-.24c-.39.069-.73.287-.96.608l-.83 1.176a1.472 1.472 0 00-.02 1.646c.11.163.25.303.41.412v0z" stroke="#FFC73F" stroke-width=".74" stroke-miterlimit="10"/><path d="M1302.35 443.775l.05.032c.38.268.91.176 1.17-.205l2.24-3.187a.845.845 0 00-.2-1.178l-.05-.031a.836.836 0 00-1.17.205l-2.24 3.186a.845.845 0 00.2 1.178z" fill="#FFC73F"/><path d="M1300.46 446.423l.06.043c.67.472 1.6.31 2.07-.363l.83-1.173c.47-.673.31-1.601-.36-2.073l-.07-.043c-.67-.472-1.6-.31-2.07.363l-.82 1.173c-.47.673-.31 1.601.36 2.073z" stroke="#FFC73F" stroke-width=".74" stroke-miterlimit="10"/><path d="M1297.77 450.26l.05.032c.38.268.91.177 1.18-.205l2.24-3.187a.846.846 0 00-.21-1.177l-.04-.032a.848.848 0 00-1.18.205l-2.24 3.187a.844.844 0 00.2 1.177z" fill="#FFC73F"/><path d="M1314.09 426.787a1.514 1.514 0 002.08-.367l.82-1.176c.11-.159.19-.339.24-.528.04-.19.04-.387.01-.578a1.704 1.704 0 00-.21-.538 1.568 1.568 0 00-.41-.414v0a1.366 1.366 0 00-.52-.234 1.49 1.49 0 00-1.12.199c-.16.105-.3.242-.41.402l-.83 1.176c-.12.157-.2.336-.24.525-.05.19-.05.386-.02.578.03.192.1.376.21.54.1.164.24.305.4.415v0z" stroke="#FFC73F" stroke-width=".74" stroke-miterlimit="10"/><path d="M1311.4 430.642l.05.032a.85.85 0 001.18-.206l2.24-3.186a.856.856 0 00-.21-1.178l-.04-.032a.848.848 0 00-1.18.206l-2.24 3.186c-.27.382-.18.91.2 1.178z" fill="#FFC73F"/><path d="M1309.56 433.273l.06.042c.67.473 1.6.311 2.07-.361l.82-1.173c.48-.672.32-1.601-.36-2.073l-.06-.043a1.484 1.484 0 00-2.07.362l-.83 1.172c-.47.673-.31 1.601.37 2.074z" stroke="#FFC73F" stroke-width=".74" stroke-miterlimit="10"/><path d="M1306.79 437.163l.05.032c.38.268.91.175 1.18-.208l2.23-3.191a.845.845 0 00-.21-1.177l-.04-.032a.847.847 0 00-1.18.208l-2.23 3.191c-.27.383-.18.91.2 1.177z" fill="#FFC73F"/><path d="M1296.04 452.758l.06.042c.67.473 1.6.311 2.07-.362l.83-1.172c.47-.673.31-1.601-.37-2.074l-.06-.042a1.483 1.483 0 00-2.07.362l-.82 1.172c-.48.672-.31 1.601.36 2.074z" stroke="#FFC73F" stroke-width=".74" stroke-miterlimit="10"/><path d="M1293.29 456.65l.04.031c.38.269.91.177 1.18-.205l2.24-3.186a.845.845 0 00-.2-1.178l-.05-.031a.848.848 0 00-1.18.205l-2.24 3.186a.838.838 0 00.21 1.178z" fill="#FFC73F"/><path d="M1291.39 459.297l.06.043c.67.472 1.6.311 2.07-.362l.83-1.172c.47-.673.31-1.601-.37-2.074l-.06-.042a1.484 1.484 0 00-2.07.361l-.82 1.173c-.48.672-.32 1.601.36 2.073z" stroke="#FFC73F" stroke-width=".74" stroke-miterlimit="10"/><path d="M1288.71 463.143l.05.032c.38.268.91.175 1.17-.208l2.24-3.191a.845.845 0 00-.21-1.177l-.05-.032a.837.837 0 00-1.17.208l-2.24 3.191c-.26.383-.17.91.21 1.177z" fill="#FFC73F"/><path d="M1286.95 465.699l.06.043c.68.472 1.6.31 2.08-.363l.81-1.158c.47-.673.31-1.601-.36-2.073l-.06-.043c-.68-.472-1.6-.31-2.08.363l-.81 1.158c-.47.672-.31 1.601.36 2.073z" stroke="#FFC73F" stroke-width=".74" stroke-miterlimit="10"/><path d="M1285.77 465.272l-.04.03a.862.862 0 00-.26 1.193l2.49 3.899c.26.401.8.518 1.2.261l.04-.03a.865.865 0 00.27-1.193l-2.5-3.899a.871.871 0 00-1.2-.261z" fill="#FFB700"/><path d="M1467.8 467.784c1.23 0 2.22-1.012 2.22-2.261 0-1.248-.99-2.26-2.22-2.26-1.23 0-2.22 1.012-2.22 2.26 0 1.249.99 2.261 2.22 2.261z" stroke="#FFB700" stroke-width=".99" stroke-miterlimit="10"/><path d="M1492.29 466.663c-8.3-.901-24.29-1.14-24.29-1.14s-16.06.239-24.36 1.14c-8.31.9-10.07 1.837-8 4.538 2.08 2.702 8.4 9.758 11.63 11.154 3.24 1.397 20.73 1.47 20.73 1.47s17.4 0 20.64-1.47c3.23-1.47 9.5-8.434 11.57-11.154 2.08-2.719.39-3.62-7.92-4.538z" fill="#FFB700"/><path d="M1468.02 472.249c17.22 0 31.18-1.251 31.18-2.793 0-1.543-13.96-2.794-31.18-2.794s-31.18 1.251-31.18 2.794c0 1.542 13.96 2.793 31.18 2.793z" fill="#EE9701"/><path d="M1467.73 423.37h-.08c-.82 0-1.49.666-1.49 1.489v1.433c0 .822.67 1.488 1.49 1.488h.08c.82 0 1.48-.666 1.48-1.488v-1.433c0-.823-.66-1.489-1.48-1.489z" stroke="#FFC73F" stroke-width=".74" stroke-miterlimit="10"/><path d="M1467.71 426.898h-.06c-.46 0-.84.379-.84.845v3.896c0 .467.38.845.84.845h.06c.46 0 .84-.378.84-.845v-3.896a.845.845 0 00-.84-.845z" fill="#FFC73F"/><path d="M1467.73 431.309h-.08c-.82 0-1.49.666-1.49 1.488v1.415c0 .822.67 1.488 1.49 1.488h.08c.82 0 1.48-.666 1.48-1.488v-1.415c0-.822-.66-1.488-1.48-1.488z" stroke="#FFC73F" stroke-width=".74" stroke-miterlimit="10"/><path d="M1467.71 434.837h-.06c-.46 0-.84.378-.84.845v3.895c0 .467.38.846.84.846h.06c.46 0 .84-.379.84-.846v-3.895a.845.845 0 00-.84-.845z" fill="#FFC73F"/><path d="M1467.73 439.118h-.08c-.82 0-1.49.667-1.49 1.489v1.433c0 .822.67 1.488 1.49 1.488h.08c.82 0 1.48-.666 1.48-1.488v-1.433c0-.822-.66-1.489-1.48-1.489z" stroke="#FFC73F" stroke-width=".74" stroke-miterlimit="10"/><path d="M1467.71 442.646h-.06c-.46 0-.84.379-.84.846v3.895c0 .467.38.845.84.845h.06c.46 0 .84-.378.84-.845v-3.895a.846.846 0 00-.84-.846z" fill="#FFC73F"/><path d="M1467.73 447.056h-.08c-.82 0-1.49.667-1.49 1.489v1.415c0 .822.67 1.488 1.49 1.488h.08c.82 0 1.48-.666 1.48-1.488v-1.415c0-.822-.66-1.489-1.48-1.489z" stroke="#FFC73F" stroke-width=".74" stroke-miterlimit="10"/><path d="M1467.71 450.584h-.06c-.46 0-.84.379-.84.846v3.895c0 .467.38.846.84.846h.06c.46 0 .84-.379.84-.846v-3.895a.846.846 0 00-.84-.846z" fill="#FFC73F"/><path d="M1467.73 454.939h-.08c-.82 0-1.49.667-1.49 1.489v1.415c0 .822.67 1.488 1.49 1.488h.08c.82 0 1.48-.666 1.48-1.488v-1.415c0-.822-.66-1.489-1.48-1.489z" stroke="#FFC73F" stroke-width=".74" stroke-miterlimit="10"/><path d="M1467.71 458.468h-.06c-.46 0-.84.378-.84.845v3.896c0 .466.38.845.84.845h.06c.46 0 .84-.379.84-.845v-3.896a.845.845 0 00-.84-.845z" fill="#FFC73F"/><path d="M1480.98 436.886l-.06.042a1.486 1.486 0 00-.37 2.074l.83 1.173c.47.672 1.4.834 2.07.361l.06-.042c.67-.473.84-1.401.36-2.074l-.82-1.172a1.483 1.483 0 00-2.07-.362z" stroke="#FFC73F" stroke-width=".74" stroke-miterlimit="10"/><path d="M1482.99 439.826l-.04.032a.837.837 0 00-.21 1.177l2.24 3.187c.27.382.8.473 1.18.205l.05-.032a.845.845 0 00.2-1.178l-2.24-3.186a.848.848 0 00-1.18-.205z" fill="#FFC73F"/><path d="M1485.54 443.39l-.06.042a1.493 1.493 0 00-.36 2.074l.81 1.158c.48.672 1.4.834 2.08.361l.06-.042c.67-.473.83-1.401.36-2.074l-.81-1.157a1.497 1.497 0 00-2.08-.362z" stroke="#FFC73F" stroke-width=".74" stroke-miterlimit="10"/><path d="M1487.57 446.346l-.05.032a.855.855 0 00-.21 1.177l2.24 3.192c.27.382.79.475 1.17.207l.05-.031a.846.846 0 00.21-1.177l-2.24-3.192a.837.837 0 00-1.17-.208z" fill="#FFC73F"/><path d="M1474.47 427.413c-.33.222-.72.308-1.11.24a1.52 1.52 0 01-.97-.608l-.82-1.176a1.49 1.49 0 01.36-2.058v0a1.49 1.49 0 011.65-.034c.16.105.3.241.41.402l.83 1.176c.11.157.2.335.24.525.05.189.05.386.02.578-.03.192-.1.375-.21.539-.1.164-.24.306-.4.416v0z" stroke="#FFC73F" stroke-width=".74" stroke-miterlimit="10"/><path d="M1473.96 426.662l-.05.032a.844.844 0 00-.2 1.177l2.24 3.187c.26.382.79.474 1.17.206l.05-.032a.845.845 0 00.2-1.178l-2.24-3.187a.836.836 0 00-1.17-.205z" fill="#FFC73F"/><path d="M1476.5 430.268l-.06.042a1.484 1.484 0 00-.36 2.074l.82 1.173c.47.672 1.4.834 2.07.361l.06-.042c.68-.473.84-1.401.37-2.074l-.83-1.172a1.483 1.483 0 00-2.07-.362z" stroke="#FFC73F" stroke-width=".74" stroke-miterlimit="10"/><path d="M1478.53 433.198l-.05.032a.845.845 0 00-.2 1.178l2.24 3.186c.27.382.8.474 1.18.205l.04-.031a.847.847 0 00.21-1.178l-2.24-3.186a.85.85 0 00-1.18-.206z" fill="#FFC73F"/><path d="M1490.04 449.838l-.06.042c-.67.472-.84 1.4-.37 2.073l.82 1.159c.47.674 1.4.837 2.07.366l.06-.042c.67-.472.84-1.4.37-2.073l-.82-1.159a1.485 1.485 0 00-2.07-.366z" stroke="#FFC73F" stroke-width=".74" stroke-miterlimit="10"/><path d="M1492.06 452.703l-.04.031a.838.838 0 00-.21 1.178l2.24 3.186a.85.85 0 001.18.206l.04-.032a.838.838 0 00.21-1.178l-2.24-3.186a.848.848 0 00-1.18-.205z" fill="#FFC73F"/><path d="M1494.38 460.94l-.06.042a1.49 1.49 0 00-.38 2.069l.82 1.175c.47.674 1.4.841 2.07.372l.06-.041c.67-.469.84-1.395.37-2.069l-.82-1.176a1.476 1.476 0 00-2.06-.372z" stroke="#FFC73F" stroke-width=".74" stroke-miterlimit="10"/><path d="M1496.61 459.126l-.05.032a.855.855 0 00-.21 1.177l2.23 3.193a.85.85 0 001.18.209l.05-.032a.855.855 0 00.21-1.177l-2.24-3.193a.836.836 0 00-1.17-.209z" fill="#FFC73F"/><path d="M1501.67 466.351c-.33.221-.72.307-1.11.238a1.478 1.478 0 01-.95-.606l-.83-1.176a1.66 1.66 0 01-.24-.525 1.402 1.402 0 01-.01-.577c.03-.191.1-.374.2-.538.11-.164.24-.306.4-.418v0a1.477 1.477 0 011.11-.253c.19.034.37.107.54.213.16.107.3.246.41.408l.82 1.176c.12.158.2.336.24.525.05.189.05.385.02.576-.03.192-.1.375-.21.539-.1.164-.24.306-.39.418v0z" stroke="#FFC73F" stroke-width=".74" stroke-miterlimit="10"/><path d="M1499.33 470.631l.05.03c.4.257.93.14 1.19-.261l2.5-3.899a.871.871 0 00-.26-1.193l-.05-.03a.86.86 0 00-1.19.261l-2.5 3.899a.863.863 0 00.26 1.193z" fill="#FFB700"/><path d="M1452.12 439.88l.06.042c.67.473 1.6.311 2.07-.361l.83-1.173c.47-.673.31-1.601-.36-2.074l-.06-.042a1.495 1.495 0 00-2.08.362l-.82 1.173c-.47.672-.31 1.601.36 2.073z" stroke="#FFC73F" stroke-width=".74" stroke-miterlimit="10"/><path d="M1449.35 439.525l.04.032c.38.271.91.18 1.19-.203l2.25-3.194a.842.842 0 00-.2-1.183l-.04-.032a.855.855 0 00-1.19.203l-2.26 3.194a.844.844 0 00.21 1.183z" fill="#FFC73F"/><path d="M1447.61 446.378l.06.042c.67.473 1.6.31 2.07-.362l.82-1.173c.48-.673.31-1.601-.36-2.074l-.06-.042c-.67-.472-1.6-.31-2.07.363l-.83 1.173c-.47.672-.31 1.601.37 2.073z" stroke="#FFC73F" stroke-width=".74" stroke-miterlimit="10"/><path d="M1444.83 450.278l.05.032a.85.85 0 001.18-.205l2.24-3.187a.846.846 0 00-.21-1.177l-.04-.032a.846.846 0 00-1.18.205l-2.24 3.186a.845.845 0 00.2 1.178z" fill="#FFC73F"/><path d="M1461.19 426.744l.06.042c.67.472 1.6.31 2.07-.363l.81-1.158c.47-.672.31-1.601-.36-2.073l-.06-.042c-.67-.473-1.6-.31-2.07.362l-.82 1.158c-.47.673-.31 1.601.37 2.074z" stroke="#FFC73F" stroke-width=".74" stroke-miterlimit="10"/><path d="M1458.44 430.657l.04.031c.39.269.91.177 1.18-.205l2.24-3.186a.845.845 0 00-.2-1.178l-.05-.032a.85.85 0 00-1.18.206l-2.24 3.186a.847.847 0 00.21 1.178z" fill="#FFC73F"/><path d="M1456.59 433.293a1.473 1.473 0 001.65.049c.17-.104.31-.239.43-.399l.82-1.176c.23-.325.31-.725.24-1.113a1.465 1.465 0 00-.6-.963 1.479 1.479 0 00-1.99.349l-.82 1.176a1.44 1.44 0 00-.29 1.095c.05.389.25.742.56.982v0z" stroke="#FFC73F" stroke-width=".74" stroke-miterlimit="10"/><path d="M1453.82 437.193l.04.032c.39.269.91.177 1.18-.205l2.24-3.186a.844.844 0 00-.2-1.177l-.05-.032a.835.835 0 00-1.17.205l-2.25 3.186a.846.846 0 00.21 1.177z" fill="#FFC73F"/><path d="M1443.07 452.771a1.483 1.483 0 002.07-.368l.83-1.176c.22-.323.31-.719.24-1.104a1.496 1.496 0 00-.61-.954v0a1.498 1.498 0 00-2.06.367l-.82 1.176c-.12.157-.2.336-.25.525-.04.19-.05.387-.01.579.03.192.1.375.2.539.11.164.25.305.41.416v0z" stroke="#FFC73F" stroke-width=".74" stroke-miterlimit="10"/><path d="M1440.3 456.667l.05.032c.38.269.91.177 1.18-.205l2.24-3.186a.847.847 0 00-.21-1.178l-.04-.031a.849.849 0 00-1.18.204l-2.24 3.186c-.27.382-.18.91.2 1.178z" fill="#FFC73F"/><path d="M1438.49 459.275c.16.113.34.194.53.238a1.46 1.46 0 001.11-.189c.16-.104.31-.239.42-.398l.83-1.176c.11-.159.19-.339.23-.53.05-.19.05-.387.02-.58a1.35 1.35 0 00-.21-.543c-.1-.166-.23-.31-.39-.423v0a1.472 1.472 0 00-1.11-.254c-.19.035-.38.107-.54.214-.16.107-.3.245-.41.407l-.83 1.158c-.11.159-.19.339-.24.53-.04.19-.05.388-.01.581.03.192.1.377.2.543.11.165.24.309.4.422v0z" stroke="#FFC73F" stroke-width=".74" stroke-miterlimit="10"/><path d="M1435.86 458.939l.04.032c.39.271.92.18 1.19-.203l2.26-3.194a.846.846 0 00-.21-1.184l-.04-.032a.858.858 0 00-1.19.203l-2.25 3.194a.843.843 0 00.2 1.184z" fill="#FFC73F"/><path d="M1433.95 465.751l.06.042c.68.472 1.61.308 2.08-.365l.81-1.159c.47-.674.31-1.602-.37-2.073l-.06-.042a1.485 1.485 0 00-2.07.365l-.81 1.159c-.47.674-.31 1.602.36 2.073z" stroke="#FFC73F" stroke-width=".74" stroke-miterlimit="10"/><path d="M1432.83 465.257l-.05.03a.862.862 0 00-.26 1.193l2.5 3.898c.25.402.79.519 1.19.261l.05-.029c.4-.258.52-.792.26-1.194l-2.5-3.898a.86.86 0 00-1.19-.261z" fill="#FFB700"/></svg>