<svg width="430" height="487" fill="none" xmlns="http://www.w3.org/2000/svg"><ellipse cx="215" cy="440.709" rx="215" ry="46.13" fill="#5066CA" fill-opacity=".13"/><ellipse cx="292.433" cy="376.044" rx="67.548" ry="14.416" fill="#5066CA" fill-opacity=".13"/><g clip-path="url(#clip0)"><path d="M302.358 298.292h-26.825v74.343h26.825v-74.343z" fill="#432416"/><path d="M289.248 298.292h-13.715v74.343h13.715v-74.343z" fill="#5B2F2F"/><path d="M172.895 184.486c0 67.283 51.697 116.202 114.084 116.202 62.388 0 111.863-48.919 111.863-116.202 0-67.284-51.685-179.904-114.085-179.904-62.399 0-111.862 112.632-111.862 179.904z" fill="#C6CC38"/><path d="M284.757 4.582c1.513 0 2.99.128 4.479.256v295.734c-.779 0-1.489.116-2.257.116-62.387 0-114.084-48.919-114.084-116.202 0-67.284 49.452-179.904 111.862-179.904z" fill="#9EB121"/><path d="M143.964 135.3h-28.477v9.921h28.477V135.3z" fill="#191919"/><path d="M170.569 150.734c-10.47-6.386-40.809-10.34-40.809-10.34v.523s-30.56 2.513-41.099 8.863c-8.085 4.873 5.933 34.322 11.237 50.71 1.28 3.931 1.629 21.586 1.164 37.218-.128 3.85-3.804 21.528-3.28 28.856.15 2.186 24.882 15.759 31.815 16.12v-.524c6.98-.325 31.7-13.829 31.863-16.015.547-7.327-3.001-25.006-3.118-28.856-.465-15.631-.139-33.299 1.164-37.218 5.293-16.376 19.136-44.441 11.063-49.337z" fill="#FFBD95"/><path d="M142.429 135.567c-.698-3.128-2.408-18.609-2.408-18.609h-10.226v.512H119.57s-1.757 15.457-2.455 18.609c-.698 3.152-9.097 7.781-9.097 7.781h21.766v-.523h21.765s-8.434-4.653-9.12-7.77z" fill="#FFBD95"/><path d="M139.427 117.016h-9.643v.454H119.57s-1.757 15.457-2.455 18.609c-.698 3.152-9.097 7.781-9.097 7.781h1.024c9.714-2.57 19.381-5.141 20.683-5.513 2.723-.779 12.029-7.141 12.029-7.141-.64-4.722-1.408-11.456-1.64-13.538l-.687-.652z" fill="#FFA47C"/><path d="M146.232 249.304c-13.517 1.395-13.959 22.296-13.017 30.495.942 8.2 10.993 60.177 12.971 62.306 1.978 2.128 19.555.279 20.846-3.827 1.291-4.105 2.234-31.903-.209-57.199-2.443-25.297-8.178-33.043-20.591-31.775z" fill="#FFBD95"/><path d="M167.102 339.279a8.84 8.84 0 00-9.783-7.537l-3.688.454a8.794 8.794 0 00-7.643 9.909l1.361 10.06a8.837 8.837 0 009.795 7.537l3.688-.454a8.797 8.797 0 007.452-6.452 8.783 8.783 0 00.225-3.457l-1.407-10.06z" fill="#FFBD95"/><path d="M197.685 172.541c-2.175-2.058-7.178-8.258-15.763-15.969s-17.24-8.676-21.311-4.001c-10.924 12.585 31.618 42.824 38.807 47.151 7.189 4.327 16.007 5.478 18.753 2.419 3.292-3.663 2.198-8.851-1.036-12.479-3.234-3.629-17.217-14.992-19.45-17.121z" fill="#FFA47C"/><path d="M157.551 344.024c-11.982 1.163-10.795 10.735-8.655 29.763.954 8.362 10.133 51.524 10.133 51.524l8.969-.896s6.979-33.298 4.874-56.909c-2.106-23.61-11.528-23.866-15.321-23.482z" fill="#FFBD95"/><path d="M157.691 144.767a119.624 119.624 0 01-11.284-4.222l-16.693 9.491-16.6-9.537s-5.363 2.326-11.354 4.187c-6.794 2.093-14.379 3.849-15.542 6.234-1.163 2.384 10.923 49.128 12.285 53.071 1.36 3.942-2.187 31.716 1.268 40.021l29.768.977h.07l29.769-.884c2.734-9.514 0-36.579 1.349-40.545 1.35-3.966 13.657-50.035 12.436-52.501-1.222-2.465-8.69-4.175-15.472-6.292z" fill="#001D7A"/><path d="M169.987 341.768c-.582-5.455-.221-55.502-2.164-66.761-1.943-11.258-8.69-31.612-8.69-31.612l-29.524 1.524-.431 37.044s13.402 58.095 14.611 68.993l8.818 80.251 22.103-1.686s.954-32.74-.489-49.175c-1.442-16.434-3.652-33.135-4.234-38.578z" fill="#00033D"/><path d="M171.639 429.777l-17.345 1.314s1.419 13.201 4.048 13.201c1.164 0 8.714 3.105 13.076 2.419 5.747-.907 8.422-5.815 8.515-7.071.21-2.222-8.294-9.863-8.294-9.863z" fill="#191919"/><path d="M124.723 235.812c-1.966-2.326-1.163-16.225-.105-18.877 1.513-3.652 7.922-8.211 13.285-10.176 5.363-1.966 14.681-1.222 16.833-4.978 2.152-3.757-3.571-7.339-6.072-7.339s-18.613-4.653-21.103-4.327c-2.489.326-21.474 2.326-24.51 0-3.036-2.326-18.101-37.218-18.101-37.218 3.373 14.701 12.68 48.639 13.552 51.175 1.361 3.966-2.326 31.403 1.164 39.73l29.885 1.268h.069l29.769-.884c-3.083-.422-6.142-1-9.167-1.733-2.652-.895-20.776-.942-25.499-6.641z" fill="#00033D"/><path d="M169.987 341.768c-.582-5.455-.221-55.502-2.164-66.761-1.942-11.258-8.69-31.612-8.69-31.612l-17.589 1.163s13.739 34.008 14.984 41.464c1.244 7.455 2.664 57.56 2.885 60.409.221 2.85 7.701 80.054 8.038 83.625l7.282-.558s.954-32.741-.488-49.175c-1.443-16.434-3.676-33.112-4.258-38.555z" fill="#001D7A"/><path d="M112.671 249.606c-12.412-1.337-18.147 6.816-20.59 33.392-2.443 26.576-1.512 55.827-.221 60.095 1.291 4.269 18.869 6.258 20.846 4.025 1.978-2.233 12.075-56.851 12.983-65.469.907-8.619.488-30.577-13.018-32.043z" fill="#FFBD95"/><path d="M91.798 344.066l-1.422 10.992a9.015 9.015 0 007.784 10.096l3.265.422c4.938.638 9.459-2.846 10.098-7.783l1.422-10.993a9.013 9.013 0 00-7.784-10.095l-3.265-.423c-4.938-.638-9.46 2.847-10.098 7.784z" fill="#FFBD95"/><path d="M101.329 349.13c-3.792-.396-13.226-.117-15.309 24.68-2.082 24.797 4.874 59.805 4.874 59.805l8.958.942s9.19-45.36 10.132-54.141c2.152-19.993 3.327-30.019-8.655-31.286z" fill="#FFBD95"/><path d="M91.057 276.624c-1.93 11.817-1.57 64.411-2.152 70.133-.582 5.722-2.815 23.261-4.258 40.545-1.442 17.283-.5 51.675-.5 51.675l22.103 1.768s7.619-72.867 8.829-84.323c1.21-11.456 14.344-71.843 14.344-71.843l.174-39.544-29.838-1.64S93 264.796 91.057 276.624z" fill="#00033D"/><path d="M78.936 449.642c.093 1.349 2.78 6.478 8.515 7.432 4.374.721 11.947-2.535 13.076-2.535 2.617 0 4.048-13.957 4.048-13.957l-17.333-1.384s-8.446 8.083-8.306 10.444z" fill="#191919"/><path d="M159.703 146.547c-6.119 7.676 5.317 33.973 5.317 33.973s27 15.945 27.814 15.213c.814-.733 11.738-20.366 11.738-20.366s-25.895-23.005-31.747-25.878a35.94 35.94 0 00-13.122-2.942zm-49.358 136.079c-1.745 7.862-2.641 13.352-2.408 17.12.581 9.467-2.757 54.932-3.258 56.06-.5 1.128-6.584 81.519-6.98 84.252l8.504.675s7.62-72.866 8.83-84.322c.93-8.956 9.155-47.802 12.703-64.341l.768-4.199-2.734-6.548c-2.955-7.269-13.715-6.35-15.425 1.303z" fill="#001D7A"/><path d="M161.285 239.115H97.374a3.373 3.373 0 00-3.373 3.373v9.119a3.373 3.373 0 003.373 3.372h63.911a3.373 3.373 0 003.374-3.372v-9.119a3.373 3.373 0 00-3.374-3.373z" fill="#0B0B0B"/><path d="M125.7 143.813l-5.537 2.606 9.585 3.617-1.268-5.35-2.78-.873z" fill="#191919"/><path d="M130.889 144.721l-1.21 5.315 9.574-3.617-5.526-2.606-2.838.908z" fill="#191919"/><path d="M109.926 141.825l13.867 11.7 4.688-8.839-12.994-9.386-5.561 6.525zm20.962 2.896l4.747 8.804 13.866-11.7-5.56-6.525-13.053 9.421z" fill="#001D7A"/><path d="M117.162 213.225c-2.141 4.443-1.536 9.13 10.818 15.225 12.355 6.094 42.961 16.539 42.961 16.539l3.49-7.2s-21.393-17.702-27.919-21.307c-6.526-3.606-23.732-14.911-29.35-3.257zm64.702 32.241l-6.84-2.513a1.75 1.75 0 00-2.21.954 1.619 1.619 0 00.052 1.26 1.624 1.624 0 00.937.845l6.851 2.512a1.744 1.744 0 002.211-.953 1.617 1.617 0 00-1.001-2.105z" fill="#FFA47C"/><path d="M183.295 242.697l-6.84-2.5a1.743 1.743 0 00-2.222.954 1.63 1.63 0 00.432 1.787c.161.146.351.258.557.329l6.84 2.501a1.743 1.743 0 002.222-.954 1.634 1.634 0 00-.047-1.267 1.639 1.639 0 00-.942-.85z" fill="#FFA47C"/><path d="M184.516 239.929l-6.851-2.5a1.738 1.738 0 00-2.176 1 1.637 1.637 0 00.047 1.267 1.62 1.62 0 00.942.85l6.84 2.5a1.748 1.748 0 002.222-.953 1.637 1.637 0 00-.441-1.838 1.622 1.622 0 00-.583-.326z" fill="#FFA47C"/><path d="M185.424 237.15l-6.84-2.501a1.743 1.743 0 00-2.222.954 1.645 1.645 0 00.051 1.265 1.636 1.636 0 00.938.851l6.851 2.501a1.735 1.735 0 002.211-.954 1.63 1.63 0 00-.432-1.787 1.62 1.62 0 00-.557-.329z" fill="#FFA47C"/><path d="M161.53 232.428l1.372 10.141a37.945 37.945 0 006.399 3.687c3.408 1.478 11.4 2.327 11.4 2.327s.733-5.211 1.163-7.188c.431-1.977 4.2-3.78 4.2-3.78s-7.864-4.652-10.156-5.211c-2.292-.558-14.378.024-14.378.024z" fill="#FFA47C"/><path d="M191.868 206.165c-4.653 5.816-17.868 30.24-17.868 30.24l5.933 5.362s24.429-21.226 33.573-31.519c9.143-10.293 7.945-14.864 4.292-18.179-9.585-8.641-21.218 8.293-25.93 14.096zm-18.88 37.521a1.748 1.748 0 00-2.396-.326l-5.91 4.257a1.634 1.634 0 00-.665 1.735c.053.214.149.415.281.591a1.745 1.745 0 002.327.314l5.909-4.256a1.637 1.637 0 00.691-1.081 1.62 1.62 0 00-.307-1.246l.07.012z" fill="#FFA47C"/><path d="M170.836 241.406a1.735 1.735 0 00-2.326-.314l-5.945 4.315a1.634 1.634 0 00-.665 1.735c.053.214.148.415.281.591a1.756 1.756 0 002.397.326l5.909-4.268a1.628 1.628 0 00.696-1.08 1.613 1.613 0 00-.312-1.246l-.035-.059z" fill="#FFA47C"/><path d="M168.94 239.069a1.73 1.73 0 00-2.385-.314l-5.909 4.256a1.62 1.62 0 00-.691 1.081 1.62 1.62 0 00.307 1.246 1.748 1.748 0 002.396.325l5.91-4.268a1.612 1.612 0 00.695-1.08 1.613 1.613 0 00-.311-1.246h-.012z" fill="#FFA47C"/><path d="M167.346 236.638a1.745 1.745 0 00-2.326-.314l-5.91 4.257a1.63 1.63 0 00-.384 2.326 1.747 1.747 0 002.396.325l5.91-4.256a1.634 1.634 0 00.665-1.735 1.633 1.633 0 00-.281-.592l-.07-.011z" fill="#FFA47C"/><path d="M166.893 233.393c-2.059 1.163-8.364 7.758-8.364 7.758s4.06.732 5.049 2.5c.989 1.768 3.106 6.606 3.106 6.606s7.48-2.931 10.365-5.28a38.188 38.188 0 005.165-5.28l-1.431-10.131s-11.819 2.687-13.89 3.827z" fill="#FFA47C"/><path d="M155.074 158.084a18.417 18.417 0 01-2.199-.244 14.601 14.601 0 01-2.652-.849.759.759 0 00-.594 0c-.859.367-1.751.651-2.664.849a18.22 18.22 0 01-2.187.244.836.836 0 00-.791.803c-.069 1.605-.104 5.373.908 7.56a8.531 8.531 0 004.792 4.78.842.842 0 00.477 0 8.558 8.558 0 004.793-4.78c1.012-2.187.977-5.955.908-7.56a.837.837 0 00-.791-.803z" fill="#FFA61D"/><path d="M114.998 186.603c-1.431-2.641-4.258-10.084-10.004-20.087-5.747-10.002-13.68-13.607-18.997-10.467-14.297 8.513 16.682 50.558 22.184 56.885 5.502 6.328 13.494 10.189 17.066 8.142 4.257-2.454 4.839-7.734 2.896-12.189-1.942-4.455-11.621-19.563-13.145-22.284z" fill="#FFA47C"/><path d="M86.206 150.606s-5.933 6.885-5.7 13.398c.756 20.668 21.824 44.604 21.824 44.604s21.288-9.107 22.323-9.444c1.036-.338-12.214-22.482-12.214-22.482s-16.496-27.565-26.233-26.076z" fill="#001D7A"/><path d="M140.59 83.09c-12.11-1.559-21.683 7.885-23.754 21.074-2.071 13.19 10.19 27.914 18.275 29.159 8.457 1.325 17.043-10.468 20.207-23.46 3.257-13.328-4.467-25.46-14.728-26.773z" fill="#FFBD95"/><path d="M145.616 82.938c-2.932-1.64-16.391-4.396-24.674 6.781-8.282 11.177-3.804 29.53-.779 30.24.989.232 1.163-10.049 6.398-16.76.721-.93 1.326 8.328 2.245 7.618.919-.709.524-11.212 3.572-12.712 14.192-6.979 23.696 2.082 23.696 2.082.721-11.34-7.527-15.62-10.458-17.249z" fill="#8D3B26"/><path d="M124.828 102.35c-2.013 0-3.641 3.094-3.653 6.978-.012 3.885 1.617 6.979 3.63 6.979 2.012 0 2.989-4.978 2.989-8.805 0-3.826-.954-5.152-2.966-5.152z" fill="#FFBD95"/><path d="M109.693 87.474c0 4.118 7.666 5.409 7.666 5.409h19.579l10.562-23.82c-7.654.035-37.807 14.003-37.807 18.411zM147.5 69.098l-10.562 23.82h19.566s6.841-4.49 6.841-8.596c0-4.454-8.178-15.224-15.845-15.224z" fill="#001D7A"/><path d="M156.725 92.243h-39.61v5.327h39.61v-5.327z" fill="#292929"/><path d="M156.725 97.372l-36.795.21s23.266 6.978 34.364 6.978c11.098 0 2.431-7.188 2.431-7.188z" fill="#191919"/><path d="M156.725 95.79h-39.61v1.78h39.61v-1.78zm0-3.489h-39.61v.791h39.61v-.79z" fill="#FFA61D"/><path d="M149.722 85.916c-2.768 0-3.606 2.047-3.606 4.57 0 2.525 2.571 4.583 3.606 4.583 1.338 0 3.665-2.024 3.665-4.582 0-2.56-.919-4.571-3.665-4.571zM85.23 166.319c-2.095 1.093-1.978 5.443.255 9.7 2.234 4.257 5.817 6.827 7.84 5.734 2.025-1.094 1.978-5.444-.267-9.712s-5.746-6.827-7.829-5.722z" fill="#FFA61D"/><path d="M193.951 124.227c-13.227 0-23.952 7.77-23.952 17.342s10.725 17.341 23.952 17.341c13.226 0 23.94-7.769 23.94-17.341 0-9.572-10.725-17.342-23.94-17.342z" fill="#424242"/><path d="M129.562 222.483c-1.861 4.525-1.023 9.223 11.354 15.12 12.378 5.897 42.844 15.795 42.844 15.795l3.013-7.316s-21.812-17.446-28.396-20.935c-6.584-3.489-23.929-14.504-28.815-2.664zm90.726 9.061c-6.189 4.163-26.058 23.749-26.058 23.749l3.769 6.979s29.245-13.05 40.948-20.203c11.703-7.152 12.04-11.909 9.702-16.213-6.096-11.27-22.184 1.524-28.361 5.688z" fill="#FFBD95"/><path d="M163.542 162.748c-15.123-6.978-32.118 42.254-34.212 50.338-2.094 8.083-.756 16.841 2.943 18.609 4.42 2.117 9.085-.396 11.633-4.501 2.547-4.106 9.504-20.645 10.911-23.39 1.408-2.744 5.887-9.188 10.854-19.562 4.967-10.375 3.478-18.923-2.129-21.494zm62.097.163c-5.956 1.663-8.806 9.863-5.537 20.935 3.269 11.073 6.7 18.191 7.631 21.028.931 2.838 5.188 20.366 7.073 24.832 1.884 4.466 6.084 7.676 10.784 6.281 3.931-1.164 6.642-9.596 5.816-17.912-.826-8.316-9.795-59.607-25.767-55.164z" fill="#FFBD95"/><path d="M231.653 163.609c-10.469-6.339-38.482-9.747-38.482-9.747v.524s-30.478 2.547-40.948 8.897c-8.05 4.873 5.956 34.206 11.273 50.524 1.279 3.919 1.163 21.482.651 37.055-.128 3.85-3.245 21.505-2.71 28.809.163 2.187 24.824 15.679 31.734 16.027v-.523c6.91-.349 31.572-13.84 31.735-16.015.535-7.304-3.083-24.89-3.199-28.728-.489-15.574-.14-33.217 1.163-37.137 5.293-16.329 16.833-44.813 8.783-49.686z" fill="#FFBD95"/><path d="M228.826 160.899c-13.331.884-16.065 11.34-16.065 11.34s15.937 49.151 17.019 49.244c1.082.093 22.789-8.141 22.789-8.141s-8.771-33.52-10.946-39.638a20.747 20.747 0 00-12.797-12.805zm-74.881 1.221s-5.014-.698-9.783 9.084c-2.85 5.815-15.356 38.137-15.356 38.137s20.637 10.63 21.731 10.665c1.093.035 16.169-26.82 16.169-26.82s-3.129-29.193-12.761-31.066z" fill="#5066CA"/><path d="M205.735 149.036c-.686-3.117-2.42-18.493-2.42-18.493h-10.144v.523h-10.19s-1.675 15.376-2.42 18.481c-.744 3.106-9.085 7.805-9.085 7.805h21.695v-.524h21.696s-8.388-4.687-9.132-7.792z" fill="#FFBD95"/><path d="M202.78 130.543h-9.609v.523h-10.19s-1.675 15.376-2.42 18.481c-.744 3.106-9.085 7.804-9.085 7.804h1.024c9.678-2.582 19.973 6.711 21.265 6.351 2.71-.779 11.33-19.005 11.33-19.005-.651-4.652-1.419-11.421-1.652-13.503l-.663-.651z" fill="#FFA47C"/><path d="M210.295 153.653l-17.159 9.828-16.565-9.491a119.636 119.636 0 01-11.307 4.187c-6.77 2.094-14.32 3.85-15.484 6.234-1.163 2.385 10.959 48.919 12.331 52.873 1.373 3.955-2.128 31.613 1.327 39.917l29.664.919h.069l29.676-.919c2.711-9.491-.07-36.462 1.291-40.417 1.361-3.954 13.006-46.115 10.144-52.791-1.023-2.513-23.987-10.34-23.987-10.34z" fill="#5066CA"/><path d="M198.011 254.154c-2.851-1.78-7.131-3.571-9.726-5.176-2.594-1.605-.081-7.13-.104-9.979-.024-2.85 7.875-8.2 13.226-10.165 5.351-1.966 14.623-1.245 16.763-4.99 2.141-3.745-3.571-7.316-6.06-7.316-2.49 0-18.613-4.652-21.044-4.28-2.432.372-21.405 2.326-24.43 0-3.024-2.326-18.112-45.929-18.112-45.929 3.385 14.654 12.715 48.465 13.587 50.977 1.361 3.954-2.129 31.624 1.326 39.905l29.664.919h.07l29.676-.919a90.056 90.056 0 01-9.144-1.721c-2.675-.768-12.831.453-15.692-1.326z" fill="#2E43A0"/><path d="M209.399 261.388c-13.552 0-16.286 19.598-16.286 27.367 0 7.769 4.327 57.479 6.049 59.665 1.722 2.187 19.357 2.094 21.091-1.64 1.733-3.733 5.688-29.704 6.037-53.664.349-23.959-4.455-31.763-16.891-31.728z" fill="#FFBD95"/><path d="M211.551 339.744l-4.199.081a8.536 8.536 0 00-5.981 2.652 8.542 8.542 0 00-2.348 6.106l.232 9.084a8.57 8.57 0 008.713 8.292l4.2-.093a8.551 8.551 0 008.341-8.746l-.245-9.083a8.56 8.56 0 00-8.713-8.293z" fill="#FFBD95"/><path d="M210.26 351.247c-12.005 0-11.889 9.06-11.842 27.111 0 7.932 4.409 49.279 4.409 49.279h8.992s10.539-30.589 11.051-52.92c.512-22.331-8.806-23.47-12.61-23.47z" fill="#FFBD95"/><path d="M227.989 287.522c-.687-10.735-5.165-30.472-5.165-30.472l-29.734.837-2.478 35.369s5.223 52.908 5.223 63.236v76.111l22.103.489s4.525-30.624 4.886-46.174c.36-15.55 0-31.403 0-36.59 0-5.187 5.863-52.082 5.165-62.806z" fill="#4A4A4A"/><path d="M197.499 432.661s0 12.55 2.571 12.794c1.163.105 8.294 3.722 12.691 3.489 5.817-.314 8.992-4.652 9.214-5.815.407-2.094-7.143-10.061-7.143-10.061l-17.333-.407z" fill="#191919"/><path d="M227.989 287.522c-.686-10.735-5.165-30.472-5.165-30.472l-14.03.395-.721.442s7.096 31.81 7.515 38.928c.419 7.118-3.653 54.234-3.757 56.921-.105 2.686-1.164 75.808-1.164 79.193l7.283.163s4.525-30.624 4.885-46.174c.361-15.55 0-31.403 0-36.59 0-5.187 5.852-52.082 5.154-62.806z" fill="#666"/><path d="M175.687 263.005c-12.331-1.605-18.229 6.397-21.23 32.833-3.002 26.437-2.687 55.548-1.489 59.886 1.198 4.339 18.612 6.63 20.683 4.443 2.071-2.186 13.238-56.397 14.332-64.957 1.093-8.56 1.14-30.461-12.296-32.205z" fill="#FFBD95"/><path d="M153.377 356.732l-1.66 10.95a8.991 8.991 0 007.544 10.236l3.259.494a8.992 8.992 0 0010.238-7.542l1.66-10.95a8.991 8.991 0 00-7.544-10.236l-3.259-.494a8.992 8.992 0 00-10.238 7.542z" fill="#FFBD95"/><path d="M162.286 361.947c-3.769-.477-13.192-.407-15.798 24.261-2.606 24.669 3.583 59.701 3.583 59.701l8.923 1.163s10.12-45.011 11.249-53.746c2.559-19.9 3.955-29.879-7.957-31.379z" fill="#FFBD95"/><path d="M153.596 288.941c-2.187 11.735-2.943 64.155-3.653 69.842-.709 5.688-3.292 23.134-5.106 40.312-1.815 17.179-1.652 51.478-1.652 51.478l22.009 2.233s9.214-72.448 10.656-83.834c1.442-11.387 14.762-71.715 14.762-71.715l2.466-39.277-30.117-1.965s-7.189 21.179-9.365 32.926z" fill="#4A4A4A"/><path d="M136.996 460.994c.058 1.349 2.629 6.513 8.329 7.583 4.339.814 11.959-2.268 13.087-2.245 2.606.058 4.281-13.771 4.281-13.771l-17.252-1.744s-8.55 7.816-8.445 10.177z" fill="#191919"/><path d="M169.905 284.603c-1.791 8.351-2.698 14.178-2.442 18.167.628 10.014-2.711 58.211-3.223 59.421-.512 1.21-11.261 89.138-11.261 89.138l.361.279 11.854 1.163s9.213-72.448 10.656-83.834c1.442-11.387 14.762-71.68 14.762-71.68l-4.653-14.155a8.48 8.48 0 00-3.456-3.945 8.47 8.47 0 00-12.598 5.446z" fill="#666"/><path d="M195.079 123.785c-16.414-.337-22.905 5.35-24.708 10.549-6.457 18.609 6.2 23.925 6.2 23.925l16.565 5.222s-17.205-8.281-19.008-25.588c-.337-3.198 0-12.235 20.102-12.398 20.102-.163 21.73 11.282 21.079 16.283-1.675 12.794-22.173 21.773-22.173 21.773l17.159-5.42s7.748-.268 8.434-17.19c.372-9.154-7.178-16.83-23.65-17.156z" fill="#5066CA"/><path d="M193.206 96.953c-10.12 0-18.322 10.631-18.322 23.739 0 13.107 10.284 26.157 18.322 26.157 8.411 0 18.322-13.05 18.322-26.157 0-13.108-8.201-23.739-18.322-23.739z" fill="#FFBD95"/><path d="M209.62 102.641c-1.093-1.768-10.842-6.49-12.307-6.606a37.62 37.62 0 00-8.399 0c-3.048.476-8.399 2.489-9.609 4.861-1.21 2.373-4.235 5.106-5.212 6.979-.977 1.872-2.687 6.757-2.443 7.466.245.71 1.594 6.63 1.722 7.107.51.733 1.112 1.398 1.791 1.977 0 0 3.246-5.548 4.258-6.176 1.571-.965 25.697-1.582 27.279-.756 1.582.826 4.654 6.711 4.654 6.711.826-1.43 3.955-8.455 3.338-11.177-.616-2.722-3.967-8.607-5.072-10.386z" fill="#8D3B26"/></g><defs><clipPath id="clip0"><path fill="#fff" transform="translate(76.61)" d="M0 0h324.559v468.716H0z"/></clipPath></defs></svg>