<svg width="382" height="421" fill="none" xmlns="http://www.w3.org/2000/svg"><ellipse cx="235.151" cy="389.198" rx="146.849" ry="31.194" fill="#5066CA" fill-opacity=".13"/><path d="M235.49 15.421H43.532v333.634H235.49V15.421z" fill="#5066CA"/><path d="M214.945 195.676c4.564 0 8.263-3.371 8.263-7.529 0-4.159-3.699-7.53-8.263-7.53-4.563 0-8.262 3.371-8.262 7.53 0 4.158 3.699 7.529 8.262 7.529z" fill="#FFD500"/><path d="M214.986 189.432c2.892 0 5.236-1.717 5.236-3.836 0-2.118-2.344-3.835-5.236-3.835s-5.237 1.717-5.237 3.835c0 2.119 2.345 3.836 5.237 3.836z" fill="#FFF155"/><path d="M216.594 202.393a1.618 1.618 0 10-2.614 1.255l-.311 2.41h2.623l-.311-2.41a1.623 1.623 0 00.613-1.255z" fill="#261E19"/><path d="M135.521 83.18c.453.24.955.373 1.467.391.764 0 1.146-.371 1.146-.843s-.623-.893-1.266-.893h-.603V80.83h.572c.493 0 1.126-.191 1.126-.723s-.311-.663-.935-.663a2.845 2.845 0 00-1.316.382l-.292-1.145a3.916 3.916 0 011.94-.472c1.347 0 2.091.703 2.091 1.566a1.503 1.503 0 01-1.156 1.456 1.557 1.557 0 011.367 1.526c0 1.115-1.005 1.918-2.573 1.918a3.754 3.754 0 01-1.87-.442l.302-1.054zm5.096 1.446v-.924l.804-.733c1.377-1.225 2.01-1.927 2.06-2.66 0-.512-.311-.924-1.005-.924a2.234 2.234 0 00-1.337.522l-.422-1.004a3.51 3.51 0 012.01-.642 1.953 1.953 0 012.053 1.18c.109.262.16.544.149.828a3.873 3.873 0 01-1.669 2.7l-.583.492h2.372v1.205l-4.432-.04z" fill="#3E2918"/><path d="M134.234 82.698c.45.238.948.372 1.457.392.764 0 1.156-.372 1.156-.844 0-.471-.623-.893-1.266-.893h-.603v-1.004h.613c.492 0 1.116-.19 1.116-.723 0-.382-.302-.663-.925-.663a2.808 2.808 0 00-1.317.382l-.301-1.064a4.021 4.021 0 011.95-.472c1.336 0 2.09.703 2.09 1.566a1.508 1.508 0 01-1.156 1.456 1.554 1.554 0 011.367 1.526c0 1.104-1.005 1.917-2.573 1.917a3.75 3.75 0 01-1.869-.441l.261-1.135zm5.106 1.446v-.894l.814-.733c1.377-1.224 2.01-1.927 2.06-2.67 0-.512-.311-.914-1.005-.914a2.29 2.29 0 00-1.346.522l-.413-1.004a3.515 3.515 0 012.061-.642 1.949 1.949 0 012.201 2.008 3.887 3.887 0 01-1.668 2.7l-.583.482h2.372v1.215l-4.493-.07z" fill="#FFF7B2"/><path d="M141.621 98.03a2.226 2.226 0 01-1.37 2.065 2.227 2.227 0 01-2.435-.476 2.23 2.23 0 01-.488-2.43 2.225 2.225 0 012.062-1.379 2.22 2.22 0 012.231 2.22z" fill="#A8A8A7"/><path d="M139.34 100.659a2.635 2.635 0 01-2.433-1.624 2.635 2.635 0 01-.15-1.52 2.635 2.635 0 014.773-.948 2.63 2.63 0 01-2.19 4.092zm0-4.447a1.83 1.83 0 00-1.793 2.187 1.822 1.822 0 001.442 1.433 1.833 1.833 0 001.877-.785c.2-.302.305-.656.303-1.018a1.817 1.817 0 00-1.829-1.817z" fill="#514540"/><path d="M43.532.402H28.495v348.643h15.037V.402z" fill="#32428C"/><path d="M43.934 349.457h-15.84V0h15.84v349.457zm-15.077-.803H43.12V.804H28.907l-.05 347.85zM250.527.422H235.49v348.623h15.037V.422z" fill="#32428C"/><path d="M250.929 349.457h-15.831V.02h15.841l-.01 349.437zm-15.077-.804h14.323V.823h-14.283l-.04 347.83z" fill="#DFB100"/><path d="M28.495.402l15.037 15.02H235.49L250.547.401H28.495z" fill="#32428C"/><path d="M235.661 15.823h-192.3L27.531 0h223.991l-15.861 15.823zM43.683 15.02h191.646L249.572.803H29.45L43.683 15.02z" fill="#DFB100"/><path d="M279.032 349.055H0v12.921h279.032v-12.921z" fill="#32428C"/><path d="M292.008 108.621h-24.635v8.574h24.635v-8.574z" fill="#191919"/><path d="M315.016 121.954c-9.107-5.512-35.3-8.925-35.3-8.925v.441s-26.425 2.169-35.541 7.661c-6.986 4.216 5.136 29.657 9.719 43.814 1.106 3.403 1.407 18.654 1.005 32.127-.11 3.333-3.287 18.604-2.834 24.939.13 1.888 21.519 13.614 27.51 13.925v-.452c6.031-.291 27.42-11.957 27.56-13.844.473-6.326-2.593-21.596-2.693-24.929-.402-13.504-.121-28.775 1.005-32.128 4.573-14.156 16.544-38.392 9.569-42.629z" fill="#FFBD95"/><path d="M235.309 129.283c-6.814 7.289-10.654 13.052-12.373 14.949-1.718 1.898-12.966 12.841-15.438 16.205-2.473 3.363-3.016 7.931.05 10.823 2.603 2.429 10.051.743 15.971-3.514 5.921-4.257 40.205-33.564 29.832-43.533-3.859-3.705-11.217-2.229-18.042 5.07z" fill="#FFBD95"/><path d="M241.35 121.482c-4.824 2.902-24.122 25.712-24.122 25.712s10.986 16.064 11.739 16.616c.754.552 19.098-13.413 19.098-13.413s11.458-25.29 5.608-31.465c.01 0-7.518-.351-12.323 2.55z" fill="#001D7A"/><path d="M290.672 108.852c-.593-2.701-2.071-16.064-2.071-16.064h-8.845v.452h-8.845s-1.518 13.333-2.121 16.064-7.89 6.747-7.89 6.747h18.826v-.442h18.826s-7.287-4.066-7.88-6.757z" fill="#FFBD95"/><path d="M288.088 92.818h-8.332v.452h-8.845s-1.518 13.333-2.121 16.064-7.89 6.747-7.89 6.747h.894c8.403-2.229 16.756-4.448 17.882-4.769 2.352-.673 10.413-6.165 10.413-6.165-.553-4.086-1.217-9.899-1.418-11.706l-.583-.623z" fill="#FFA47C"/><path d="M293.958 207.383c-11.689 1.265-12.061 20.24-11.257 27.68.804 7.439 9.518 54.637 11.227 56.574 1.709 1.938 16.916.251 18.032-3.473 1.116-3.725 1.92-28.965-.191-51.926-2.111-22.961-7.076-30.05-17.811-28.855z" fill="#FFBD95"/><path d="M303.257 282.278l-2.821.364c-4.272.552-7.287 4.459-6.735 8.726l1.23 9.499c.553 4.267 4.464 7.279 8.736 6.727l2.821-.364c4.272-.552 7.287-4.459 6.735-8.726l-1.23-9.499c-.553-4.267-4.464-7.279-8.736-6.727zm33.831-137.564c-1.648-2.008-5.267-7.861-11.79-15.411-6.523-7.55-13.81-9.307-17.831-5.743-10.744 9.568 22.455 40.16 28.144 44.637 5.689 4.478 13.127 6.446 15.83 4.117 3.217-2.771 2.835-7.349.463-10.813-2.372-3.464-13.117-14.709-14.816-16.787z" fill="#FFBD95"/><path d="M303.758 293.374c-10.363 1.095-9.348 9.759-7.488 27.028.814 7.59 8.765 46.785 8.765 46.785l7.749-.813s6.031-30.24 4.222-51.675c-1.81-21.435-9.971-21.666-13.248-21.325z" fill="#FFBD95"/><path d="M303.869 116.834a103.542 103.542 0 01-9.8-3.645l-14.383 8.193-14.364-8.243s-4.643 2.008-9.82 3.625c-5.87 1.807-12.433 3.323-13.438 5.391-1.005 2.068 9.448 42.408 10.624 45.842 1.176 3.433-1.89 27.409 1.096 34.587l25.741.843h.06l25.751-.763c2.362-8.222 0-31.605 1.166-35.039 1.166-3.433 11.81-43.261 10.795-45.36-1.015-2.098-7.558-3.634-13.428-5.431z" fill="#001D7A"/><path d="M314.503 291.326c-.502-4.94-.191-50.39-1.859-60.6-1.669-10.211-7.529-28.704-7.529-28.704l-25.53 1.375-.372 33.634s11.599 52.749 12.635 62.648c1.035 9.9 7.639 72.859 7.639 72.859l19.097-1.526s.824-29.728-.422-44.657c-1.246-14.929-3.156-30.079-3.659-35.029z" fill="#00033D"/><path d="M315.93 371.233l-14.996 1.205s1.246 12.048 3.508 12.048c1.005 0 7.528 2.821 11.307 2.188 4.966-.823 7.287-5.25 7.358-6.415.141-2.088-7.177-9.026-7.177-9.026z" fill="#191919"/><path d="M275.364 195.466c-1.699-2.008-1.006-14.056-.091-16.305 1.307-3.162 6.845-7.098 11.489-8.795 4.643-1.697 12.664-1.064 14.554-4.337 1.889-3.273-3.086-6.335-5.247-6.345-2.161-.01-16.082-4.016-18.253-3.735-2.171.281-18.575 2.008-21.198 0-2.623-2.008-15.65-32.188-15.65-32.188 2.915 12.711 10.966 42.027 11.72 44.176 1.176 3.433-2.01 27.107 1.005 34.326l25.842 1.104h.06l25.751-.763a79.228 79.228 0 01-7.93-1.436c-2.332-.743-17.962-.783-22.052-5.702z" fill="#00033D"/><path d="M314.503 291.326c-.502-4.94-.191-50.39-1.859-60.6-1.669-10.211-7.529-28.704-7.529-28.704l-15.207 1.064s11.88 30.893 12.966 37.659c1.085 6.767 2.302 52.258 2.482 54.838.181 2.58 6.664 72.688 6.966 75.931l6.292-.502s.824-29.728-.422-44.657c-1.246-14.929-3.186-30.079-3.689-35.029z" fill="#001D7A"/><path d="M264.93 207.383c-10.735-1.195-15.7 5.883-17.77 28.855-2.071 22.971-1.297 48.191-.191 51.926 1.105 3.734 16.273 5.371 17.991 3.473 1.719-1.897 10.444-49.125 11.228-56.574.784-7.45.432-26.415-11.258-27.68z" fill="#FFBD95"/><path d="M246.869 288.972l-1.23 9.499c-.552 4.267 2.463 8.174 6.735 8.726l2.821.364c4.272.552 8.184-2.46 8.736-6.727l1.23-9.499c.553-4.267-2.463-8.174-6.735-8.726l-2.821-.364c-4.272-.552-8.183 2.46-8.736 6.727z" fill="#FFBD95"/><path d="M255.13 293.374c-3.276-.341-11.438-.1-13.247 21.325-1.809 21.425 4.221 51.675 4.221 51.675l7.75.813s7.95-39.155 8.764-46.785c1.86-17.269 2.875-25.933-7.488-27.028z" fill="#FFBD95"/><path d="M246.245 230.726c-1.668 10.21-1.357 55.66-1.859 60.6-.503 4.94-2.433 20.08-3.689 35.029-1.256 14.949-.422 44.657-.422 44.657l19.097 1.526s6.584-62.97 7.629-72.859c1.045-9.889 12.393-62.076 12.393-62.076l.141-34.206-25.802-1.375s-5.809 18.493-7.488 28.704z" fill="#00033D"/><path d="M235.782 380.219c.07 1.165 2.392 5.592 7.357 6.415 3.78.633 10.333-2.188 11.318-2.188 2.251 0 3.498-12.048 3.498-12.048l-14.997-1.205s-7.317 6.978-7.176 9.026z" fill="#191919"/><path d="M279.967 59.938c-8.775 0-15.901 9.186-15.922 20.552-.02 11.365 8.886 22.7 15.861 22.71 7.297 0 15.911-11.295 15.932-22.66.02-11.365-7.087-20.592-15.871-20.602z" fill="#FFBD95"/><path d="M291.436 63.331c-1.006-2.068-5.569-3.825-8.142-4.246a32.611 32.611 0 00-7.126 0c-1.237.11-9.499 4.216-10.433 5.762-.935 1.547-3.719 6.697-4.242 9.036-.523 2.34 1.849 7.63 2.553 8.866 0 0 2.734-10.914 4.081-11.637 1.347-.722 23.017-.371 23.118.653.1 1.024 4.372 11.937 4.372 11.937a9.999 9.999 0 00.844-1.586c.111-.412 1.247-5.562 1.458-6.184.211-.623-1.237-4.85-2.071-6.496-.834-1.647-3.387-4.046-4.412-6.105z" fill="#8D3B26"/><path d="M318.272 122.255a31.192 31.192 0 00-10.936-4.016c-6.08 5.944 4.403 31.656 4.403 31.656s17.841 14.708 18.625 14.126c.784-.582 12.363-16.164 12.363-16.164s-19.751-22.52-24.455-25.602zM262.95 235.916c-1.507 6.807-2.281 11.546-2.08 14.799.492 8.182-2.392 47.458-2.825 48.442-.432.984-5.689 70.43-6.03 72.789l7.357.592s6.584-62.97 7.629-72.859c.814-7.741 7.92-41.304 10.986-55.6l.663-3.615-2.342-5.662c-2.593-6.295-11.9-5.522-13.358 1.114z" fill="#001D7A"/><path d="M306.975 198.317h-55.262a2.924 2.924 0 00-2.925 2.922v7.861a2.924 2.924 0 002.925 2.922h55.262a2.924 2.924 0 002.925-2.922v-7.861a2.924 2.924 0 00-2.925-2.922z" fill="#0B0B0B"/><path d="M276.208 115.98l-4.785 2.249 8.293 3.133-1.096-4.629-2.412-.753z" fill="#191919"/><path d="M280.701 116.764l-1.055 4.598 8.292-3.133-4.785-2.249-2.452.784z" fill="#191919"/><path d="M262.569 114.263l11.991 10.101 4.06-7.631-11.247-8.112-4.804 5.642zm18.132 2.5l4.101 7.601 11.981-10.101-4.795-5.642-11.287 8.142zm-25.41-52.689c0 3.544 6.825 4.669 6.825 4.669h17.429V47.559c-6.825 0-24.254 12.7-24.254 16.515zm24.254-16.515v21.214h17.429s6.814-1.124 6.814-4.668c0-3.846-17.428-16.546-24.243-16.546z" fill="#001D7A"/><path d="M297.155 68.19h-35.26v4.61h35.26v-4.608z" fill="#292929"/><path d="M279.635 79.596a20.556 20.556 0 0015.308-6.797h-30.545a20.28 20.28 0 0015.237 6.797z" fill="#191919"/><path d="M297.155 71.263h-35.26v1.536h35.26v-1.536zm0-3.022h-35.26v.683h35.26v-.683z" fill="#FFA61D"/><path d="M279.646 70.49c1.771 0 3.206-1.767 3.206-3.946 0-2.179-1.435-3.945-3.206-3.945s-3.207 1.766-3.207 3.945c0 2.18 1.436 3.946 3.207 3.946z" fill="#FFA61D"/><path d="M207.809 161.23c-3.186 2.841-4.251 6.777 3.589 15.722 7.839 8.946 28.847 27.429 28.847 27.429l5.156-4.598s-11.217-21.214-15.258-26.254c-4.041-5.04-13.991-19.739-22.334-12.299zm48.206 45.229l-5.92-2.168a1.511 1.511 0 00-1.92.823 1.406 1.406 0 00.855 1.817l5.92 2.169a1.507 1.507 0 001.92-.823 1.408 1.408 0 00-.041-1.09 1.391 1.391 0 00-.814-.728z" fill="#FFBD95"/><path d="M257.211 204.07l-5.92-2.169a1.507 1.507 0 00-1.92.823 1.409 1.409 0 00.854 1.818l5.921 2.168a1.51 1.51 0 001.919-.823 1.405 1.405 0 00-.854-1.817z" fill="#FFBD95"/><path d="M258.307 201.67l-5.92-2.158a1.508 1.508 0 00-1.92.823 1.4 1.4 0 00.373 1.543c.14.126.303.223.481.284l5.92 2.169a1.52 1.52 0 001.92-.823 1.416 1.416 0 00-.854-1.838z" fill="#FFBD95"/><path d="M259.091 199.271l-5.9-2.119a1.502 1.502 0 00-1.91.824 1.407 1.407 0 00.044 1.096 1.412 1.412 0 00.82.731l5.91 2.169a1.52 1.52 0 001.92-.824 1.406 1.406 0 00-.884-1.877z" fill="#FFBD95"/><path d="M238.385 195.195l1.186 8.754a32.792 32.792 0 005.579 3.243c2.945 1.275 9.85 2.008 9.85 2.008s.633-4.508 1.005-6.214c.372-1.707 3.629-3.263 3.629-3.263s-6.805-4.016-8.785-4.498c-1.98-.482-12.464-.03-12.464-.03zm90.572-21.777c-4.071 5.02-15.439 26.104-15.439 26.104l5.116 4.638s21.108-18.343 29.048-27.238c7.941-8.895 6.865-12.841 3.699-15.702-8.292-7.45-18.353 7.188-22.424 12.198zm-20.485 30.873l-5.92 2.168c-.178.06-.343.155-.483.279a1.375 1.375 0 00-.371 1.539 1.5 1.5 0 001.909.823l5.92-2.169a1.389 1.389 0 00.865-1.817 1.495 1.495 0 00-1.92-.823z" fill="#FFBD95"/><path d="M307.246 201.901l-5.92 2.169a1.388 1.388 0 00-.814.727 1.41 1.41 0 00-.041 1.09 1.511 1.511 0 001.92.823l5.91-2.168a1.412 1.412 0 00.82-.725c.08-.17.126-.354.134-.542a1.413 1.413 0 00-.089-.55 1.5 1.5 0 00-1.92-.824z" fill="#FFBD95"/><path d="M306.191 199.512l-5.921 2.158a1.414 1.414 0 00-.945 1.276c-.007.188.024.376.091.552a1.522 1.522 0 001.92.823l5.92-2.169a1.414 1.414 0 00.945-1.276 1.4 1.4 0 00-.091-.551 1.504 1.504 0 00-1.919-.813z" fill="#FFBD95"/><path d="M305.457 197.152l-5.921 2.159a1.396 1.396 0 00-.813.733 1.403 1.403 0 00-.041 1.094 1.509 1.509 0 001.91.823l5.87-2.198c.178-.061.343-.157.484-.282a1.41 1.41 0 00.464-.994 1.4 1.4 0 00-.094-.551 1.495 1.495 0 00-1.859-.784z" fill="#FFBD95"/><path d="M307.728 195.144c-2.01.462-8.785 4.498-8.785 4.498s3.217 1.556 3.629 3.263c.412 1.707 1.005 6.215 1.005 6.215s6.905-.693 9.85-2.008a32.801 32.801 0 005.538-3.193l1.176-8.755s-10.433-.502-12.413-.02z" fill="#FFBD95"/><path d="M301.607 128.309a17.86 17.86 0 01-1.889-.211 12.075 12.075 0 01-2.312-.742.725.725 0 00-.503 0c-.74.324-1.511.573-2.301.742-.626.104-1.257.174-1.89.211a.725.725 0 00-.684.693c-.06 1.386-.1 4.638.784 6.526a7.346 7.346 0 004.142 4.136c.134.04.277.04.412 0a7.387 7.387 0 004.141-4.136c.884-1.888.844-5.14.784-6.526a.727.727 0 00-.684-.693z" fill="#FFA61D"/></svg>