<svg width="529" height="401" fill="none" xmlns="http://www.w3.org/2000/svg"><path d="M445.054 65.442h-26.388v9.185h26.388v-9.185z" fill="#191919"/><path d="M469.681 79.741c-9.74-5.964-37.799-9.572-37.799-9.572v.477s-28.341 2.326-38.067 8.216c-7.458 4.473 5.489 31.789 10.442 46.953 1.178 3.638 1.491 19.995 1.029 34.458-.119 3.578-3.52 19.95-2.983 26.734.149 2.028 23.046 14.598 29.475 14.911v-.477c6.429-.313 29.371-12.823 29.52-14.836.492-6.785-2.789-23.156-2.894-26.72-.432-14.478-.119-30.85 1.059-34.488 4.878-15.134 17.691-41.123 10.218-45.656z" fill="#FFBD95"/><path d="M384.313 87.584c-7.279 7.828-11.396 13.956-13.246 16.029-1.85 2.072-13.843 13.762-16.528 17.371-2.685 3.608-3.281 8.499 0 11.6 2.775 2.594 10.815.79 17.095-3.757 6.28-4.548 43.064-35.98 31.951-46.67-4.072-3.966-11.978-2.386-19.272 5.427z" fill="#FFBD95"/><path d="M390.817 79.234c-5.161 3.117-25.88 27.555-25.88 27.555s11.769 17.192 12.574 17.818c.806.626 20.511-14.389 20.511-14.389s12.276-27.107 5.966-33.727c.015 0-8.025-.373-13.171 2.743z" fill="#001D7A"/><path d="M443.607 65.696c-.627-2.893-2.208-17.177-2.208-17.177h-9.487v.477h-9.472s-1.626 14.284-2.267 17.177c-.642 2.892-8.458 7.231-8.458 7.231h20.167v-.477h20.153s-7.787-4.354-8.428-7.231z" fill="#FFBD95"/><path d="M440.847 48.519h-8.95v.477h-9.457s-1.626 14.284-2.267 17.177c-.642 2.892-8.458 7.231-8.458 7.231h.955c8.95-2.385 17.9-4.756 19.153-5.099 2.521-.73 11.157-6.62 11.157-6.62a463.538 463.538 0 01-1.491-12.54l-.642-.626z" fill="#FFA47C"/><path d="M447.142 171.307c-12.515 1.342-12.903 21.68-12.067 29.657.835 7.977 10.188 58.568 12.022 60.626 1.835 2.057 18.124.283 19.318-3.713 1.193-3.996 2.058-31.044-.209-55.661-2.268-24.617-7.578-32.162-19.064-30.909z" fill="#FFBD95"/><path d="M457.114 251.557l-3.017.39a8.35 8.35 0 00-7.213 9.352l1.316 10.173a8.352 8.352 0 009.356 7.21l3.018-.39c4.575-.592 7.805-4.779 7.213-9.352l-1.317-10.174a8.352 8.352 0 00-9.356-7.209zm36.21-147.422c-1.76-2.147-5.638-8.425-12.619-16.521s-14.827-9.975-19.109-6.158c-11.5 10.258 24.046 43.061 30.147 47.848 6.101 4.786 14.066 6.903 16.945 4.473 3.461-2.982 3.058-7.888.508-11.586-2.551-3.697-14.052-15.835-15.872-18.056z" fill="#FFBD95"/><path d="M457.629 263.409c-11.098 1.163-10.009 10.437-8.011 28.956.866 8.141 9.383 50.144 9.383 50.144l8.294-.865s6.444-32.415 4.475-55.378c-1.969-22.962-10.621-23.17-14.141-22.857z" fill="#FFBD95"/><path d="M457.748 74.225a110.262 110.262 0 01-10.442-3.907L431.897 79.1l-15.379-8.842a109.756 109.756 0 01-10.516 3.877c-6.28 1.938-13.306 3.564-14.394 5.785-1.089 2.222 10.128 45.462 11.381 49.13 1.253 3.668-2.014 29.389 1.178 37.068l27.581.909 27.566-.82c2.536-8.812 0-33.876 1.253-37.544 1.253-3.668 12.65-46.372 11.561-48.623-1.089-2.252-8.085-3.862-14.38-5.816z" fill="#001D7A"/><path d="M469.144 261.261c-.537-5.293-.209-54.005-1.999-64.95-1.79-10.944-8.055-30.76-8.055-30.76l-27.342 1.491-.403 36.054s12.411 56.525 13.53 67.097c1.119 10.571 8.174 78.101 8.174 78.101l20.496-1.64s.88-31.864-.463-47.863c-1.342-15.999-3.401-32.221-3.938-37.53z" fill="#00033D"/><path d="M470.666 346.907l-16.051 1.283s1.328 12.882 3.745 12.882c1.044 0 8.069 2.983 12.112 2.356a9.951 9.951 0 007.891-6.888c.134-2.177-7.697-9.633-7.697-9.633z" fill="#191919"/><path d="M427.214 158.528c-1.805-2.177-1.104-15.029-.09-17.475 1.402-3.384 7.339-7.619 12.306-9.423 4.968-1.804 13.589-1.148 15.588-4.622 1.999-3.475-3.311-6.8-5.623-6.8-2.312 0-17.229-4.324-19.556-3.996-2.327.328-19.884 2.118-22.703 0-2.82-2.117-16.752-34.488-16.752-34.488 3.118 13.614 11.74 45.03 12.545 47.371 1.268 3.683-2.133 29.105 1.074 36.799l27.686 1.178 27.566-.82a83.682 83.682 0 01-8.488-1.61c-2.417-.791-19.168-.835-23.553-6.114z" fill="#00033D"/><path d="M469.144 261.262c-.537-5.294-.208-54.006-1.998-64.95-1.79-10.945-8.056-30.761-8.056-30.761l-16.288 1.148s12.723 33.102 13.887 40.348c1.163 7.247 2.461 56.019 2.655 58.777.194 2.759 7.13 77.908 7.458 81.382l6.743-.537s.88-31.864-.463-47.863c-1.342-15.999-3.401-32.236-3.938-37.544z" fill="#001D7A"/><path d="M416.041 171.307c-11.501-1.253-16.811 6.292-19.063 30.909-2.253 24.617-1.403 51.665-.209 55.661 1.193 3.996 17.482 5.785 19.317 3.713 1.835-2.073 11.172-52.634 12.008-60.626.835-7.992.462-28.315-12.053-29.657z" fill="#FFBD95"/><path d="M396.713 258.762l-1.316 10.173a8.35 8.35 0 007.213 9.352l3.017.39a8.352 8.352 0 009.356-7.209l1.317-10.174a8.351 8.351 0 00-7.213-9.352l-3.018-.39a8.352 8.352 0 00-9.356 7.21z" fill="#FFBD95"/><path d="M405.554 263.409c-3.52-.373-12.261-.12-14.185 22.857-1.925 22.977 4.475 55.378 4.475 55.378l8.293.865s8.518-42.003 9.383-50.144c2.043-18.445 3.132-27.734-7.966-28.956z" fill="#FFBD95"/><path d="M396.038 196.312c-1.79 10.944-1.492 59.641-1.999 64.95-.507 5.308-2.611 21.545-3.938 37.544-1.328 15.999-.463 47.863-.463 47.863l20.496 1.64s7.055-67.485 8.174-78.101c1.119-10.616 13.261-66.441 13.261-66.441l.164-36.665-27.64-1.491s-6.265 19.756-8.055 30.701z" fill="#00033D"/><path d="M384.85 356.54a9.943 9.943 0 007.891 6.888c4.043.671 11.068-2.356 12.112-2.356 2.417 0 3.745-12.882 3.745-12.882l-16.081-1.283s-7.846 7.456-7.667 9.633z" fill="#191919"/><path d="M432.151 13.27c-9.398 0-17.035 9.841-17.05 22.023-.015 12.182 9.517 24.334 16.99 24.334 7.817 0 17.035-12.092 17.05-24.274.015-12.182-7.608-22.068-16.99-22.083z" fill="#FFBD95"/><path d="M444.427 16.909c-1.103-2.222-5.966-4.1-8.726-4.548a34.698 34.698 0 00-7.622 0c-1.328.12-10.173 4.473-11.173 6.173a48.998 48.998 0 00-4.475 9.721c-.567 2.535 1.969 8.171 2.73 9.498 0 0 2.983-11.69 4.371-12.465 1.387-.775 24.642-.402 24.746.701.105 1.103 4.684 12.734 4.684 12.734a10.46 10.46 0 00.91-1.685c.119-.448 1.343-5.964 1.566-6.635.224-.671-1.327-5.19-2.207-6.964-.88-1.774-3.7-4.324-4.804-6.53z" fill="#8D3B26"/><path d="M473.172 80.01a33.378 33.378 0 00-11.71-4.265c-6.518 6.367 4.714 33.922 4.714 33.922s19.108 15.73 19.944 15.149c.835-.582 13.245-17.326 13.245-17.326s-21.151-24.125-26.193-27.48zm-59.249 121.878c-1.611 7.291-2.447 12.361-2.223 15.85.522 8.767-2.565 50.875-2.983 51.918-.418 1.044-6.101 75.492-6.414 78.012l7.876.641s7.055-67.485 8.174-78.101c.865-8.29 8.488-44.254 11.769-59.642l.701-3.877-2.521-6.068a7.558 7.558 0 00-7.655-4.648 7.564 7.564 0 00-6.724 5.915z" fill="#001D7A"/><path d="M461.059 161.585h-59.174a3.132 3.132 0 00-3.133 3.131v8.425a3.132 3.132 0 003.133 3.131h59.174a3.132 3.132 0 003.133-3.131v-8.425a3.132 3.132 0 00-3.133-3.131zm-32.935-88.24l-5.132 2.4 8.891 3.355-1.179-4.965-2.58-.79z" fill="#191919"/><path d="M432.941 74.18l-1.133 4.92 8.875-3.355-5.116-2.4-2.626.835z" fill="#191919"/><path d="M413.52 71.496l12.828 10.825 4.356-8.186-12.038-8.693-5.146 6.054zm19.421 2.684l4.386 8.14 12.843-10.824-5.146-6.054-12.083 8.738zm-27.208-56.481c0 3.802 7.31 5.01 7.31 5.01h18.66V0c-7.309 0-25.97 13.613-25.97 17.699z" fill="#001D7A"/><path d="M431.688 0v22.738h18.676s7.309-1.207 7.309-5.01C457.673 13.614 438.998 0 431.688 0z" fill="#001D7A"/><path d="M450.558 22.112h-37.769v4.936h37.769v-4.936z" fill="#292929"/><path d="M431.793 34.339a22.297 22.297 0 0016.408-6.978h-32.727a22.03 22.03 0 0016.319 6.978z" fill="#191919"/><path d="M450.558 25.407h-37.769v1.655h37.769v-1.655zm0-3.235h-37.769v.73h37.769v-.73z" fill="#FFA61D"/><path d="M431.808 16.118c-2.641 0-3.446 1.894-3.446 4.235a4.74 4.74 0 003.446 4.234 4.474 4.474 0 003.43-4.234c0-2.341-.82-4.235-3.43-4.235z" fill="#FFA61D"/><path d="M353.943 114.93c-11.814-4.801-40.797-12.391-40.797-12.391l-2.73 6.889s20.958 14.91 27.253 17.788c6.295 2.878 22.897 12.182 27.297 1.044 1.671-4.265.791-8.544-11.023-13.33zm130.685 19.965c-4.371 5.368-16.543 28.032-16.543 28.032l5.475 4.95s22.628-19.652 31.101-29.18c8.473-9.527 7.369-13.762 3.983-16.834-8.935-8.021-19.66 7.664-24.016 13.032zm-21.943 33.087l-6.339 2.326a1.492 1.492 0 00-.91 1.953 1.582 1.582 0 002.043.88l6.34-2.312a1.489 1.489 0 00.925-1.953 1.623 1.623 0 00-2.059-.894z" fill="#FFBD95"/><path d="M461.358 165.432l-6.399 2.311a1.504 1.504 0 00-.873.782 1.487 1.487 0 00-.037 1.171 1.624 1.624 0 002.058.88l6.34-2.326a1.493 1.493 0 00.91-1.953 1.593 1.593 0 00-1.999-.865z" fill="#FFBD95"/><path d="M460.239 162.867l-6.34 2.311a1.494 1.494 0 00-.924 1.954 1.626 1.626 0 002.058.879l6.34-2.326a1.478 1.478 0 00.872-.782 1.497 1.497 0 00.038-1.171 1.586 1.586 0 00-2.044-.865z" fill="#FFBD95"/><path d="M459.434 160.288l-6.34 2.326a1.484 1.484 0 00-.872.782 1.488 1.488 0 00-.038 1.171 1.611 1.611 0 002.044.88l6.339-2.311a1.498 1.498 0 00.882-.779 1.488 1.488 0 00.043-1.175 1.626 1.626 0 00-2.058-.894z" fill="#FFBD95"/><path d="M461.88 158.171c-2.133.492-9.412 4.816-9.412 4.816s3.445 1.67 3.893 3.504c.447 1.834 1.119 6.665 1.119 6.665s7.458-.746 10.546-2.118a34.76 34.76 0 005.966-3.414l1.268-9.394s-11.247-.566-13.38-.059z" fill="#FFBD95"/><path d="M455.331 86.54a15.51 15.51 0 01-2.028-.223 13.87 13.87 0 01-2.476-.79.82.82 0 00-.537 0c-.794.34-1.618.605-2.462.79-.67.119-1.348.193-2.028.224a.775.775 0 00-.731.745 17.697 17.697 0 00.835 7.008 7.912 7.912 0 004.475 4.473.717.717 0 00.433 0 7.92 7.92 0 004.475-4.473 17.739 17.739 0 00.85-7.008.793.793 0 00-.806-.746z" fill="#FFA61D"/><path d="M124.122 87.57h-7.071v11.734h7.071V87.57zm162.8-.314h-7.07v11.735h7.07V87.256z" fill="#46676C"/><path d="M102.09 77.743c0 5.86 6.981 10.646 15.498 10.646h80.073V67.082h-80.073c-8.517 0-15.498 4.801-15.498 10.661z" fill="#DD1919"/><path d="M286.4 67.082h-80.103V88.39H286.4c8.532 0 15.498-4.786 15.498-10.646 0-5.86-6.996-10.66-15.498-10.66z" fill="#0030AA"/><path d="M133.609 74.046c0 2.654 4.773 4.816 10.62 4.816h54.804v-9.647h-54.804c-5.847.03-10.62 2.206-10.62 4.83zm126.135-4.802H204.94v9.647h54.804c5.832 0 10.606-2.162 10.606-4.816s-4.833-4.83-10.606-4.83z" fill="#fff"/><path d="M224.645 66.605h-45.332v22.276h45.332V66.606z" fill="#BFD2E1"/><path d="M286.4 82.619h-61.755v.373h-45.332v-.388h-61.725c-7.458 0-13.738-2.982-15.185-7.008a7.299 7.299 0 00-.313 2.132c0 5.86 6.981 10.647 15.498 10.647h61.725v.581h45.332v-.492H286.4c8.532 0 15.498-4.786 15.498-10.646a7.299 7.299 0 00-.313-2.132c-1.477 3.906-7.727 6.933-15.185 6.933z" fill="#BFD2E1"/><path style="mix-blend-mode:soft-light" d="M362.445 192.301h152.374V126.56h-96.6l-55.774 65.741z" fill="url(#paint0_linear)"/><path d="M413.058 119.642c-2.491 1.163-68.02 79.025-68.02 79.025v98.201h170.9c4.848 0 8.786-4.309 8.816-9.662.223-36.62.865-165.089-.746-167.564-1.924-2.878-108.459-1.148-110.95 0zm101.761 72.659H362.475l55.774-65.741h96.6l-.03 65.741z" fill="#F0F0F0"/><path style="mix-blend-mode:multiply" d="M345.038 296.868h170.885c4.848 0 8.801-4.339 8.816-9.692l.328-75.298H345.038v84.99z" fill="url(#paint1_linear)"/><path style="mix-blend-mode:soft-light" d="M514.819 192.301H362.445v3.25h152.374v-3.25z" fill="url(#paint2_linear)"/><path style="mix-blend-mode:multiply" d="M501.111 211.878c-8.861 0-16.05 3.996-16.05 8.946 0 4.951 7.189 8.947 16.05 8.947 8.86 0 16.065-4.011 16.065-8.947 0-4.935-7.19-8.946-16.065-8.946z" fill="url(#paint3_linear)"/><path d="M514.476 218.036h-26.194a2.98 2.98 0 00-2.109.874 2.977 2.977 0 000 4.217 2.983 2.983 0 002.109.873h26.194a2.983 2.983 0 100-5.964z" fill="#59625C"/><path d="M392.682 235.944h-9.144v25.049h5.683v-8.484h3.461c5.295 0 9.8-2.624 9.8-8.499s-4.341-8.066-9.8-8.066zm-.344 12.062h-3.117v-7.574h3.088c2.983 0 4.609.969 4.609 3.578 0 2.61-1.477 3.996-4.609 3.996h.029zm24.628-12.525c-6.728 0-11.382 4.682-11.382 12.868s4.654 13.107 11.382 13.107c6.727 0 11.381-4.921 11.381-13.107s-4.624-12.868-11.381-12.868zm0 21.099c-3.386 0-5.579-3.191-5.579-8.231s2.193-7.992 5.579-7.992c3.386 0 5.579 2.982 5.579 7.992s-2.163 8.231-5.579 8.231zm21.748-20.636h-5.683v25.049h15.558v-4.771h-9.875v-20.278zm19.825 0h-5.684v25.049h5.684v-25.049zm16.527 20.636c-3.639 0-6.071-2.982-6.071-8.156s2.73-8.067 6.235-8.067a5.974 5.974 0 014.222 1.894l3.117-3.504a10.562 10.562 0 00-7.458-3.266c-6.444 0-11.933 4.846-11.933 13.137 0 8.29 5.31 12.837 11.799 12.837 1.517.015 3.018-.31 4.393-.95a10.173 10.173 0 003.557-2.747l-3.102-3.415a6.209 6.209 0 01-2.13 1.649 6.203 6.203 0 01-2.629.588zm17.289-6.114h8.547v-4.726h-8.547v-5.04h10.039v-4.756h-15.723v25.049h16.11v-4.771h-10.426v-5.756z" fill="#0030AA"/><path d="M58.175 173.513c-1.492-2.848-.492-6.978-1.94-9.05-1.446-2.073-11.932-8.052-24.164-1.804-10.069 5.159-9.89 10.854-9.89 11.928 0 1.073-.492 10.84 20.421 12.644a46.655 46.655 0 0017.065-1.357l3.61-8.946a7.26 7.26 0 01-5.102-3.415z" fill="#46676C"/><path style="mix-blend-mode:soft-light" d="M58.175 173.513c-1.492-2.848-.492-6.978-1.94-9.05-1.446-2.073-11.932-8.052-24.164-1.804-5.504 2.803-7.876 5.785-8.95 8.066a23.526 23.526 0 016.951-5.099c12.172-6.233 22.688-.269 24.15 1.804 1.462 2.072.477 6.218 1.924 9.065a7.446 7.446 0 005.072 3.37l-2.536 6.337c.582-.149.955-.283.955-.283l3.64-8.991a7.26 7.26 0 01-5.102-3.415z" fill="url(#paint4_linear)"/><path d="M370.709 162.659c-12.187-6.248-22.688-.269-24.135 1.804-1.447 2.072-.478 6.202-1.939 9.05a7.314 7.314 0 01-5.072 3.37l3.625 9.036a46.76 46.76 0 0016.99 1.282c20.883-1.804 20.436-11.615 20.436-12.644s.179-6.739-9.905-11.898z" fill="#98B1C7"/><path style="mix-blend-mode:soft-light" d="M370.709 162.659c-12.187-6.248-22.688-.269-24.135 1.804-1.447 2.072-.478 6.202-1.939 9.05a7.302 7.302 0 01-5.072 3.37l3.625 9.036s.373.134.969.283l-2.565-6.292a7.456 7.456 0 005.086-3.37c1.492-2.848.478-6.978 1.939-9.065 1.462-2.088 11.934-8.037 24.136-1.805a22.943 22.943 0 016.921 5.1c-1.059-2.326-3.461-5.308-8.965-8.111z" fill="url(#paint5_linear)"/><path style="mix-blend-mode:multiply" d="M202.166 300.595h63.559s10.442-42.688 20.884-62.191c12.903-24.081 47.838-60.939 47.838-60.939H202.166v123.13z" fill="url(#paint6_linear)"/><path d="M368.68 281.734h-42.602a2.385 2.385 0 00-2.386 2.385v88.405a2.385 2.385 0 002.386 2.385h42.602a2.386 2.386 0 002.387-2.385v-88.405a2.386 2.386 0 00-2.387-2.385z" fill="#0E1714"/><path d="M343.158 180.044c-10.039-19.041-20.645-62.206-37.187-75.015-11.755-9.095-42.498-11.093-56.982-12.226-11.531-.925-28.028-1.491-46.823-1.7v253.941c77.894 1.312 154.491 1.133 159.832-4.608 7.667-8.216 10.74-83.29 8.189-114.453-1.089-13.553-20.794-34.145-27.029-45.939z" fill="#F0F0F0"/><path d="M78.357 281.734H35.74a2.386 2.386 0 00-2.386 2.385v88.405a2.386 2.386 0 002.386 2.385h42.617a2.386 2.386 0 002.387-2.385v-88.405a2.386 2.386 0 00-2.387-2.385z" fill="#0E1714"/><path d="M98.45 105.029c-16.528 12.809-27.133 55.974-37.187 75.015-6.22 11.794-25.925 32.386-26.954 45.939-2.551 31.163.537 106.237 8.204 114.453 5.355 5.741 81.937 5.964 159.817 4.607V91.103c-18.78.268-35.278.775-46.809 1.7-14.558 1.133-45.287 3.131-57.07 12.226z" fill="#F0F0F0"/><path d="M42.438 340.436c5.355 5.741 81.907 5.964 159.772 4.607 77.88 1.313 154.448 1.134 159.788-4.607 3.326-3.563 5.787-19.771 7.309-39.498H35.174c1.476 19.727 3.938 35.935 7.264 39.498z" fill="#BFD2E1"/><path d="M202.166 328.448h137.755l10.471-19.652H202.166v19.652z" fill="#191919"/><path style="mix-blend-mode:multiply" d="M265.755 336.366s81.639 20.874 98.689-33.236c2.879-9.185 6.131-71.973 6.131-71.973l-89.679 40.139-15.141 65.07z" fill="url(#paint7_linear)"/><path d="M334.462 225.983c-10.74.567-42.975 6.859-42.975 6.859l-10.621 24.781s63.262 2.297 74.852-6.694c5.385-4.175 7.801-17.61 4.341-21.725-4.311-5.129-19.198-3.564-25.597-3.221z" fill="#6B788A"/><path style="mix-blend-mode:multiply" d="M265.755 300.595h2.596s4.087-15 15.692-24.065c19.899-15.567 46.749-19.846 46.749-19.846l-52.387 1.223-12.65 42.688z" fill="url(#paint8_linear)"/><path style="mix-blend-mode:multiply" d="M202.196 300.595h63.56s10.441-42.688 20.883-62.191c12.918-24.081 47.838-60.939 47.838-60.939l-132.296 12.987.015 110.143z" fill="url(#paint9_linear)"/><path style="mix-blend-mode:soft-light" d="M331.598 228.488a11.51 11.51 0 00-11.186 6.517 11.494 11.494 0 007.842 16.163 11.498 11.498 0 0014.039-11.214 11.093 11.093 0 00-10.695-11.466z" fill="url(#paint10_linear)"/><path style="mix-blend-mode:soft-light" d="M306.478 231.157a11.507 11.507 0 00-11.172 6.522 11.492 11.492 0 001.965 12.781 11.503 11.503 0 0017.91-1.346 11.489 11.489 0 002.007-6.461 11.134 11.134 0 00-2.982-7.957 11.148 11.148 0 00-7.728-3.539z" fill="url(#paint11_linear)"/><path style="mix-blend-mode:soft-light" d="M282.119 254.76a24.29 24.29 0 00-1.223 2.863l1.223-2.863z" fill="url(#paint12_linear)"/><path style="mix-blend-mode:soft-light" d="M325.079 226.878c-27.044 5.427-33.562 5.964-33.562 5.964l-9.398 21.918a28.234 28.234 0 0114.469-13.419c42.737-18.057 63.486-12.092 63.486-12.092s-7.951-7.813-34.995-2.371z" fill="url(#paint13_linear)"/><path style="mix-blend-mode:multiply" d="M355.33 248.245c-10.576 8.23-64.007 7.052-73.33 6.784l-1.104 2.594s63.261 2.297 74.837-6.694c4.579-3.534 6.966-13.673 5.489-19.19.313 5.666-1.999 13.494-5.892 16.506z" fill="url(#paint14_linear)"/><path style="mix-blend-mode:multiply" d="M117.842 238.404c10.442 19.503 20.883 62.191 20.883 62.191h63.56V189.423L69.989 177.494s34.89 36.829 47.853 60.91z" fill="url(#paint15_linear)"/><path style="mix-blend-mode:multiply" d="M33.876 231.157s3.267 62.788 6.16 71.973c17.02 54.215 98.689 33.236 98.689 33.236l-15.155-65.07-89.694-40.139z" fill="url(#paint16_linear)"/><path style="mix-blend-mode:multiply" d="M73.659 256.684s26.85 4.279 46.778 19.846c11.591 9.065 15.678 24.065 15.678 24.065h2.61l-12.679-42.688-52.387-1.223z" fill="url(#paint17_linear)"/><path d="M62.158 328.448h140.097v-19.652H54.043l8.115 19.652z" fill="#191919"/><path d="M253.479 272.146H151.583v22.232h101.896v-22.232z" fill="#ECEBF3"/><path d="M161.249 272.146h-9.666v22.232h9.666v-22.232z" fill="#0074A6"/><path d="M202.255 107.639h-.074c-26.254.119-101.314 5.681-101.314 5.681l-30.908 64.115h264.503l-30.908-64.115s-75.031-5.562-101.299-5.681zM69.96 225.983c-6.4-.343-21.287-1.908-25.598 3.221-3.46 4.13-1.014 17.55 4.341 21.725 11.605 8.946 74.867 6.694 74.867 6.694l-10.621-24.781s-32.235-6.292-42.99-6.859z" fill="#46676C"/><path style="mix-blend-mode:soft-light" d="M72.868 228.488a11.495 11.495 0 000 22.948 11.505 11.505 0 007.665-3.603 11.49 11.49 0 000-15.743 11.508 11.508 0 00-7.665-3.602z" fill="url(#paint18_linear)"/><path style="mix-blend-mode:soft-light" d="M97.973 231.157a11.509 11.509 0 00-11.172 6.522 11.49 11.49 0 001.965 12.781 11.505 11.505 0 0012.615 2.868 11.497 11.497 0 007.302-10.675 11.107 11.107 0 00-10.71-11.496z" fill="url(#paint19_linear)"/><path style="mix-blend-mode:soft-light" d="M79.387 226.878c-27.06-5.442-35.025 2.326-35.025 2.326s20.78-5.964 63.515 12.092a28.34 28.34 0 0114.47 13.42l-9.398-21.933s-6.518-.478-33.562-5.905z" fill="url(#paint20_linear)"/><path style="mix-blend-mode:soft-light" d="M122.317 254.775l1.223 2.848a23.611 23.611 0 00-1.223-2.848z" fill="url(#paint21_linear)"/><path style="mix-blend-mode:color-burn" d="M49.12 248.245c-3.893-2.982-6.205-10.84-5.891-16.506-1.492 5.517.94 15.656 5.474 19.19 11.605 8.946 74.867 6.694 74.867 6.694l-1.119-2.594c-9.293.268-62.784 1.446-73.33-6.784z" fill="url(#paint22_linear)"/><path style="mix-blend-mode:soft-light" d="M202.255 107.639c-31.757-1.208-101.433 5.681-101.433 5.681l233.595 64.115-30.908-64.115s-69.481-4.503-101.254-5.681z" fill="url(#paint23_linear)"/><path d="M202.255 107.639h-.089c-26.239.104-101.3 5.681-101.3 5.681l-.626 1.297c8.801-.641 75.821-5.487 100.315-5.621h.104c26.238.134 101.284 5.71 101.284 5.71l30.251 62.758h2.268l-30.908-64.115s-75.046-5.606-101.299-5.71z" fill="#46676C"/><path style="mix-blend-mode:soft-light" d="M367.323 220.66c-7.458-5.01-37.65-2.788-57.951 0-18.78 2.595-68.811 0-107.087 0v41.168s86.323-15.745 119.02-23.305c27.551-6.352 50.254-4.086 49.732-9.975-.522-5.89-3.714-7.888-3.714-7.888z" fill="url(#paint24_linear)"/><path style="mix-blend-mode:soft-light" d="M95.079 220.66c-20.287-2.788-50.463-5.01-57.951 0 0 0-3.208 1.983-3.715 7.888-.507 5.904 22.196 3.623 49.747 9.975 32.683 7.56 119.006 23.305 119.006 23.305V220.66c-38.262 0-88.307 2.595-107.087 0z" fill="url(#paint25_linear)"/><path d="M255.731 230.248H148.689a8.217 8.217 0 00-8.219 8.215v15.164a8.196 8.196 0 005.023 7.649c.998.42 2.069.638 3.152.641 15.483 0 48.031.12 53.565 0 5.549.15 38.068.075 53.551 0a8.218 8.218 0 008.189-8.23v-15.224a8.213 8.213 0 00-8.219-8.215z" fill="#191919"/><path d="M202.255 223.672a7.452 7.452 0 00-4.143 1.257 7.448 7.448 0 00-3.172 7.653 7.458 7.458 0 0013.517 2.687 7.452 7.452 0 00-.928-9.413 7.462 7.462 0 00-5.274-2.184z" fill="#BFD2E1"/><path d="M300.093 99.304c-2.849-1.312-7.339-.403-13.962-2.64-1.178-.402-2.088 1.149.746 3.087 2.834 1.938 9.845 1.581 13.977 5.428 1.015.924 4.237 5.636 8.726 6.978 4.49 1.342 7.906-3.832 7.906-3.832l-3.162-5.443s-11.381-2.266-14.231-3.578z" fill="#FFBD95"/><path d="M303.032 106.938a33.135 33.135 0 00-4.773-1.044c-.328.224-1.492 1.074 1.029 1.849 2.521.776 4.818 3.981 7.757 4.652 5.385 1.208 7.16-1.491 7.16-1.491-3.506-5.189-9.771-3.713-11.173-3.966z" fill="#FFBD95"/><ellipse cx="264.5" cy="368.2" rx="264.5" ry="32.5" fill="#5066CA" fill-opacity=".13"/><defs><linearGradient id="paint1_linear" x1="435.045" y1="298.18" x2="435.045" y2="212.46" gradientUnits="userSpaceOnUse"><stop stop-color="#EDEDED"/><stop offset=".04" stop-color="#EAEAEA"/><stop offset=".25" stop-color="#DEDEDE"/><stop offset=".46" stop-color="#DADADA"/><stop offset=".48" stop-color="#DDD"/><stop offset=".65" stop-color="#F0F0F0"/><stop offset=".82" stop-color="#FBFBFB"/><stop offset="1" stop-color="#fff"/></linearGradient><linearGradient id="paint13_linear" x1="17045.5" y1="7723.59" x2="17049.9" y2="7190.08" gradientUnits="userSpaceOnUse"><stop stop-color="#B5BFBF"/><stop offset="1" stop-color="#fff"/></linearGradient><linearGradient id="paint2_linear" x1="45169.5" y1="876.593" x2="45169.5" y2="869.475" gradientUnits="userSpaceOnUse"><stop stop-color="#B5BFBF"/><stop offset="1" stop-color="#fff"/></linearGradient><linearGradient id="paint3_linear" x1="501.111" y1="230.024" x2="501.111" y2="211.997" gradientUnits="userSpaceOnUse"><stop stop-color="#fff"/><stop offset=".18" stop-color="#FBFBFB"/><stop offset=".35" stop-color="#F0F0F0"/><stop offset=".52" stop-color="#DDD"/><stop offset=".54" stop-color="#DADADA"/><stop offset=".75" stop-color="#DEDEDE"/><stop offset=".96" stop-color="#EAEAEA"/><stop offset="1" stop-color="#EDEDED"/></linearGradient><linearGradient id="paint4_linear" x1="645.935" y1="5301.74" x2="1726.52" y2="5301.74" gradientUnits="userSpaceOnUse"><stop stop-color="#B5BFBF"/><stop offset="1" stop-color="#fff"/></linearGradient><linearGradient id="paint5_linear" x1="9470.41" y1="5301.74" x2="10549.4" y2="5301.74" gradientUnits="userSpaceOnUse"><stop stop-color="#B5BFBF"/><stop offset="1" stop-color="#fff"/></linearGradient><linearGradient id="paint6_linear" x1="13189.5" y1="32836.7" x2="20824.4" y2="29258.4" gradientUnits="userSpaceOnUse"><stop stop-color="#B5BFBF"/><stop offset="1" stop-color="#fff"/></linearGradient><linearGradient id="paint7_linear" x1="305.15" y1="285.103" x2="334.521" y2="285.745" gradientUnits="userSpaceOnUse"><stop stop-color="#8FBBB5"/><stop offset="1" stop-color="#fff"/></linearGradient><linearGradient id="paint8_linear" x1="12916.7" y1="11941.5" x2="15404.2" y2="12021.4" gradientUnits="userSpaceOnUse"><stop stop-color="#B5BFBF"/><stop offset="1" stop-color="#fff"/></linearGradient><linearGradient id="paint9_linear" x1="13404" y1="33288.6" x2="21039.3" y2="29708.3" gradientUnits="userSpaceOnUse"><stop stop-color="#8FBBB5"/><stop offset="1" stop-color="#fff"/></linearGradient><linearGradient id="paint10_linear" x1="5429.83" y1="5943.12" x2="5436.5" y2="5640.08" gradientUnits="userSpaceOnUse"><stop stop-color="#B5BFBF"/><stop offset="1" stop-color="#fff"/></linearGradient><linearGradient id="paint11_linear" x1="5016.94" y1="5986.95" x2="5023.6" y2="5683.68" gradientUnits="userSpaceOnUse"><stop stop-color="#B5BFBF"/><stop offset="1" stop-color="#fff"/></linearGradient><linearGradient id="paint12_linear" x1="511.697" y1="976.757" x2="511.964" y2="972.046" gradientUnits="userSpaceOnUse"><stop stop-color="#B5BFBF"/><stop offset="1" stop-color="#fff"/></linearGradient><linearGradient id="paint0_linear" x1="362.445" y1="159.438" x2="514.819" y2="159.438" gradientUnits="userSpaceOnUse"><stop stop-color="#B5BFBF"/><stop offset="1" stop-color="#fff"/></linearGradient><linearGradient id="paint14_linear" x1="15489.2" y1="6599.33" x2="19861.7" y2="6599.33" gradientUnits="userSpaceOnUse"><stop stop-color="#B5BFBF"/><stop offset="1" stop-color="#fff"/></linearGradient><linearGradient id="paint15_linear" x1="6899.1" y1="31807.1" x2="12114.6" y2="29361.1" gradientUnits="userSpaceOnUse"><stop stop-color="#8FBBB5"/><stop offset="1" stop-color="#fff"/></linearGradient><linearGradient id="paint16_linear" x1="5143.18" y1="29829.2" x2="7298.96" y2="29874.5" gradientUnits="userSpaceOnUse"><stop stop-color="#8FBBB5"/><stop offset="1" stop-color="#fff"/></linearGradient><linearGradient id="paint17_linear" x1="4340.72" y1="11941.9" x2="6904.18" y2="12024.8" gradientUnits="userSpaceOnUse"><stop stop-color="#B5BFBF"/><stop offset="1" stop-color="#fff"/></linearGradient><linearGradient id="paint18_linear" x1="1111.55" y1="5932.02" x2="1118.63" y2="5629.6" gradientUnits="userSpaceOnUse"><stop stop-color="#B5BFBF"/><stop offset="1" stop-color="#fff"/></linearGradient><linearGradient id="paint19_linear" x1="1592.74" y1="5986.95" x2="1599.4" y2="5683.68" gradientUnits="userSpaceOnUse"><stop stop-color="#B5BFBF"/><stop offset="1" stop-color="#fff"/></linearGradient><linearGradient id="paint20_linear" x1="4387.31" y1="7678.49" x2="4391.4" y2="7190.62" gradientUnits="userSpaceOnUse"><stop stop-color="#B5BFBF"/><stop offset="1" stop-color="#fff"/></linearGradient><linearGradient id="paint21_linear" x1="223.118" y1="972.987" x2="223.317" y2="968.352" gradientUnits="userSpaceOnUse"><stop stop-color="#B5BFBF"/><stop offset="1" stop-color="#fff"/></linearGradient><linearGradient id="paint22_linear" x1="2360.37" y1="6596.88" x2="6734.6" y2="6596.88" gradientUnits="userSpaceOnUse"><stop stop-color="#B5BFBF"/><stop offset="1" stop-color="#fff"/></linearGradient><linearGradient id="paint23_linear" x1="29543.1" y1="12260.6" x2="62170.5" y2="14621.2" gradientUnits="userSpaceOnUse"><stop stop-color="#B5BFBF"/><stop offset="1" stop-color="#fff"/></linearGradient><linearGradient id="paint24_linear" x1="32535.2" y1="11579.5" x2="32542" y2="10378.6" gradientUnits="userSpaceOnUse"><stop stop-color="#B5BFBF"/><stop offset="1" stop-color="#fff"/></linearGradient><linearGradient id="paint25_linear" x1="13319.9" y1="11463.8" x2="13325.8" y2="10420.1" gradientUnits="userSpaceOnUse"><stop stop-color="#B5BFBF"/><stop offset="1" stop-color="#fff"/></linearGradient></defs></svg>