<svg width="472" height="267" fill="none" xmlns="http://www.w3.org/2000/svg"><path d="M465.878 83.908c3.012 3.557 7.373 4.918 3.818 19.133-9.724 38.953-9.183 57.042-12.142 60.823-2.96 3.782-11.707-.82-11.707-.82s13.12-63.534 15.855-72.3a13.322 13.322 0 014.176-6.836z" fill="#232121"/><path d="M395.782 137.67c3.858 11.359 53.672 32.501 56.169 20.561 7.109-33.942 8.245-47.601 15.288-68.03 5.087-14.73-33.482-19.912-58.138-5.566-22.912 13.381-13.319 53.035-13.319 53.035zm18.683 103.176c0 .925-1.453 1.666-3.263 1.666-1.797 0-3.251-.741-3.251-1.666v-81.094c0-.912 1.454-1.653 3.251-1.653 1.81 0 3.263.741 3.263 1.653v81.094zm-70.875 3.133c0 .939-1.467 1.68-3.264 1.68-1.81 0-3.263-.741-3.263-1.68v-81.08c0-.926 1.453-1.666 3.263-1.666 1.797 0 3.264.74 3.264 1.666v81.08zm110.436 9.825c0 4.284-1.586 5.117-3.568 5.117-1.969 0-3.567-.833-3.567-1.838v-88.657c0-1.018 1.598-1.838 3.567-1.838 1.982 0 3.568.82 3.568-1.441v88.657z" fill="#000"/><path d="M401.001 169.338c-5.748-1.15-56.037-8.621-60.358-5.461-4.32 3.161-3.078 12.575-.502 14.889 2.577 2.314 48.955 11.702 51.532 9.11 2.576-2.591 9.328-18.538 9.328-18.538z" fill="#000"/><path d="M453.246 173.94c6.924 2.75 5.14-9.401 1.427-12.072-8.218-5.951-32.583-10.01-40.802-10.935 0 0-65.709-.45-67.546 7.761-1.836 8.211 41.133 10.578 49.721 17.837 8.589 7.26 57.2-2.591 57.2-2.591z" fill="#232121"/><path d="M457.183 180.498c-14.006 3.279-59.247 6.611-65.616 8.198 0 0-4.334-12.469.132-16.132 4.466-3.662 51.663-7.642 64.744-7.642 5.14.04.74 15.576.74 15.576z" fill="#000"/><path d="M396.496 263.403c0 1.018-1.599 1.838-3.568 1.838-1.982 0-3.567-.82-3.567-1.838v-88.591c0-1.018 1.585-1.824 3.567-1.824 1.969 0 3.568.806 3.568 1.824v88.591z" fill="#000"/><path d="M345.942 206.758a61.786 61.786 0 005.193 27.304s-18.683 4.853-20.137 4.641c-1.453-.211 1.85-20.719 2.339-25.413.489-4.694 12.605-6.532 12.605-6.532z" fill="#232121"/><path d="M349.774 230.294c1.321 1.547 3.766 4.667 2.999 11.503-.687 6.003-3.184 4.787-3.184 4.787s-5.893.701-8.206.912c-2.312.212-11.971 4.562-16.384 4.43-4.413-.132-12.922-1.931-13.504-3.425-.356-.899-1.559-7.219 1.546-7.563 3.105-.344 14.072-7.087 15.671-8.476 1.599-1.388 1.07-4.363 3.052-4.905 1.982-.542 5.286 1.758 4.598 3.015a2.767 2.767 0 00-.317 2.062s8.946 2.301 10.571.344a11.275 11.275 0 013.158-2.684z" fill="#000"/><path d="M413.197 126.616c8.404 7.762-8.641 28.27-15.142 29.91-6.501 1.639-52.245 9.427-51.637 12.508.383 1.997 3.832 28.64 7.928 58.973-12.87 1.322-21.141-.754-27.444-1.23 0 0-10.399-58.47-8.179-67.21 2.841-11.993 52.007-26.67 55.693-28.283 3.687-1.613 18.036-21.632 18.036-21.632s16.741 13.315 20.745 16.964z" fill="#6A7B9B"/><path d="M378.988 217.217a56.253 56.253 0 00.331 27.238s-20.375 1.322-21.895.899c-1.519-.423 5.642-19.754 6.99-24.289 1.348-4.536 14.574-3.848 14.574-3.848z" fill="#232121"/><path d="M377.984 238.558c1.427 1.441 3.964 4.376 3.145 10.935-.674 5.712-2.841 6.611-2.841 6.611s-6.131.926-8.536 1.23c-2.405.304-7.796 4.72-12.552 4.813-4.757.092-9.804 1.018-16.186-3.557-.793-.569-1.969-7.061 1.493-7.524 3.461-.463 11.31-8.422 13.028-9.837 1.718-1.415 1.07-4.324 3.224-4.906 2.154-.582 8.919 2.737 8.284 3.967a2.494 2.494 0 00-.33 2.023s6.276.833 8.047-1.124a12.282 12.282 0 013.224-2.631z" fill="#000"/><path d="M430.823 127.806c7.453 8.741 4.625 26.935-1.149 29.91-12.051 6.241-50.897 6.783-50.342 10.075.356 2.156 4.77 18.036 5.179 63.125-12.05 3.728-13.623 2.538-21.022 2.723 0 0-9.936-54.542-15.406-73.609-4.916-17.044 30.535-27.635 34.578-28.905 4.044-1.269.41-10.393.41-10.393s44.132 2.843 47.752 7.074z" fill="#6A7B9B"/><path d="M351.954 154.079s7.32-4.508 32.082-15.999c9.064-4.205 24.933-.158 24.933-.158-19.476 1.256-31.448 6.889-45.929 17.11a14.55 14.55 0 00-1.903 17.123c2.392 14.399 10.571 60.929 9.448 61.22-1.124.291-12.289 2.182-12.289 2.182s-7.492-56.183-9.685-62.027c-2.854-7.616.33-15.18 3.343-19.451z" fill="#808FAA"/><path d="M316.437 158.734c.317-10.142 46.616-26.048 55.495-26.445 9.249-.357 8.602 2.459 8.602 2.459s-49.695 11.12-52.337 24.647c-2.577 11.794 8.099 66.787 8.099 68.598l-10.649-1.229s-5.867-30.412-8.496-52.044c-1.546-12.892-.833-12.866-.648-15.166 0 .119-.066-.847-.066-.82z" fill="#808FAA"/><path d="M419.077 44.637c-.436 4.443-7.519 3.702-5.444 7.206 7.188 12.085 1.876 19.913 4.043 20.746 5.814 2.248 24.788-6.254 24.788-6.254s-7.201-17.573-4.321-27.172c1.004-3.293-19.066 5.474-19.066 5.474z" fill="#FFA47C"/><path d="M442.477 36.703c0 2.922-3.515 11.504-3.171 13.672.092.675.74 2.645 1.321 2.486.582-.158-4.4 3.967-5.377 2.989-2.115-1.984-3.859-15.233-3.343-15.96.515-.727 10.57-3.187 10.57-3.187z" fill="#000"/><path d="M430.599 36.875c.449-8.026 2.642-15.668-9.738-16.515-15.367-1.097-14.667 7.788-15.579 17.56-.911 9.771 3.449 26.101 11.284 26.445 10.941.516 14.773-7.563 16.186-14.4 1.692-.687 1.692-3.345 2.009-5.751.449-3.174-1.255-8.833-4.162-7.339z" fill="#FFBD95"/><path d="M418.337 20.308l.317-.74s3.409-1.773 2.801-1.812c-.37 0-1.533-1.124-2.365.515l1.638-2.75-7.756 2.102a4.237 4.237 0 00-2.959.609c-1.322.872-2.247 1.573-2.247 1.573s.198 1.23.463-.476c-1.718.463-3.396 4.205-3.475 7.127-.172.846-.344 2.063-.489 3.12a45.132 45.132 0 00.185 9.375l.819.542s-.727-10.697 3.33-13.513c4.056-2.816 13.213.093 13.213.093l-3.475-5.765z" fill="#232121"/><path d="M441.248 26.866c-1.202-2.526-5.364-7.934-7.24-8.872-.886-2.024-7.572-1.468-14.073-3.967 0 0 5.748 2.274 5.788 3.834-.793-1.322-10.32-4.707-9.884-3.966 2.577 4.337 2.075 1.467 1.322 3.305-.185 0 .33.172.145.132.304-1.824-1.691-3.65-3.118-4.085.502 2.472-2.365 2.247-4.361 4.879-2.431 2.208-4.347 6.413-1.929 8.317 5.603 4.403 10.227.978 13.901 1.322a7.068 7.068 0 015.827 3.517c.885 1.706 1.321 12.64 1.321 12.64l2.405-1.454 2.259-3.557 7.162 2.645s4.704-5.937.475-14.69z" fill="#000"/><path d="M442.676 62.329c3.157 4.892 20.242 13.222 20.48 15.298 1.718 15.378-9.765 27.331-13.108 32.25-3.342 4.919-4.994 17.282-6.831 24.58-5.523 21.884-6.871 17.877-8.469 22.413 0 0-4.585-3.795-16.926-13.673-10.241-8.184-23.956-14.544-40.34-13.923-3.237.106 13.86-10.935 19.595-43.449.912-5.21.925-9.084 3.752-11.266a82.539 82.539 0 0113.042-8.145s5.06 2.803 17.098.424c10.914-2.156 11.707-4.51 11.707-4.51z" fill="#2E43A0"/><path d="M385.145 98.043c-2.959 1.322-5.034 3.834-2.721 5.989 2.312 2.156 6.13.675 6.13.675l1.322-6.612-4.731-.052z" fill="#000"/><path d="M389.506 92.066c-4.057 7.616-9.5 15.47-8.84 17.731.661 2.261 12.09-2.472 12.09-2.472l1.956-15.986-5.206.727z" fill="#FFA47C"/><path d="M387.907 98.85c3.845 0 6.223 2.22 6.607.99 3.752-12.045 3.62-20.864 9.249-27.198-6.765 2.433-5.933 3.848-9.329 8.925-4.585 6.85-13.424 20.297-13.424 20.297s1.744-3.015 6.897-3.015z" fill="#5066CA"/><path d="M452.533 103.305c3.395 5.501-19.556 24.753-25.105 25.123-5.55.37-18.499.277-32.465-14.254l6.884-7.934 25.581 3.187 8.535-11.147s9.553-6.267 16.57 5.025zm-49.153-.489c-2.471-2.169-3.449-4.906-5.576-6.492-1.85-1.402-5.563-6.506-6.501-5.29-.938 1.217 2.801 5.29 3.713 5.885-3.713-3.399-3.964-6.493-6.184-5.567-2.22.925 3.713 6.81 3.713 6.81s-3.409-4.642-4.942-4.337c-1.533.304 2.471 5.289 2.471 5.289s-2.471-2.777-3.409-1.852c-.938.926 4.638 7.736 8.047 10.208 3.409 2.473 8.668-4.654 8.668-4.654z" fill="#FFA47C"/><path d="M381.274 106.677c-2.907 10.327-1.453 14.902 1.969 16.078 7.65 2.645 32.147-11.067 37.657-12.138a40.006 40.006 0 007.268-1.838 73.173 73.173 0 007.069-8.198c.779-1.058-7.334-1.388-12.923-.82-20.771 2.116-31.341 3.875-31.341 3.875l-9.699 3.041z" fill="#FFBD95"/><path d="M457.686 74.48c5.285 1.322 8.06 5.355 8.218 12.323.265 12.02-12.631 25.943-15.314 33.057-1.585-4.179-16.371-13.884-20.48-14.347 7.188-12.627 19.595-32.924 27.576-31.033z" fill="#5066CA"/><path d="M218.58 56.934c7.162-1.322 8.391 20.481 17.666 30.98 4.493 5.09 1.48 10.763.833 12.284-4.162 9.732-3.858 7.933-18.684 7.391-2.55-.092-8.469-4.786-8.469-4.786l-7.862-2.42 8.985-7.735-1.559-22.888 9.09-12.826z" fill="#001D7A"/><path d="M179.879 44.015c-12.433 9.256-19.172 10.697-23.347 19.067-.82 1.64 6.606 7.934 5.734 20.284-.819 7.378-1.057 13.222.291 16.62 1.347 3.398 3.462 11.279 3.462 11.279l51.121 1.613a152.344 152.344 0 004.916-26.51c.819-11.478 4.717-24.582 1.638-26.221-1.942-1.045-12.486-9.838-18.498-10.327-6.012-.49-25.317-5.805-25.317-5.805z" fill="#00033D"/><path d="M64.951 154.648c-9.95 17.758-39.23 26.445-41.344 11.385-6.078-43.212-11.813-64.698-21.537-76.202-9.725-11.503 33.218-20.799 39.81-13.222 16.795 19.503 23.071 78.039 23.071 78.039zm-8.087 93.84c0 .899 1.414 1.626 3.172 1.626 1.744 0 3.144-.727 3.144-1.626v-78.449c0-.886-1.4-1.613-3.144-1.613-1.758 0-3.172.727-3.172 1.613v78.449zm74.761 1.521c0 .899 1.413 1.613 3.157 1.613 1.745 0 3.158-.714 3.158-1.613v-78.436c0-.9-1.413-1.614-3.158-1.614-1.744 0-3.157.714-3.157 1.614v78.436z" fill="#000"/><path d="M41.154 179.757c-6.699 2.645-12.447-8.224-8.51-10.234 10.096-5.209 35.174-14.439 43.129-15.311 0 0 66.171-5.356 67.942 2.644 1.77 8-11.892 15.695-20.177 22.769-8.285 7.074-82.384.132-82.384.132z" fill="#232121"/><path d="M123.181 190.19c3.528-3.081 23.137-14.677 22.687-18.657-.449-3.98 1.401-16.065-3.025-13.421a206.286 206.286 0 00-19.041 14.003c-5.179 4.324-.621 18.075-.621 18.075zm-88.012 74.826c0 .979 1.532 1.772 3.435 1.772 1.916 0 3.462-.793 3.462-1.772v-85.787c0-.979-1.546-1.772-3.462-1.772-1.903 0-3.435.793-3.435 1.772v85.787z" fill="#000"/><path d="M116.628 262.094c0 .979 1.546 1.772 3.462 1.772 1.902 0 3.448-.793 3.448-1.772v-85.788c0-.965-1.546-1.771-3.448-1.771-1.916 0-3.462.806-3.462 1.771v85.788z" fill="#000"/><path d="M31.495 184.531c14.138.582 84.234.291 91.686-.979 0 0 7.638-9.057 3.224-12.601-4.413-3.543-85.674-.859-94.619 1.746-3.62 1.044-.29 11.834-.29 11.834z" fill="#000"/><g opacity=".87" fill="#FFA61D"><path opacity=".87" d="M219.307 72.748c-.092-.33 0-.899-.066-1.56a3.546 3.546 0 00-3.528-2.234c-2.735 0-3.964 1.613-3.964 2.38 0 .766.423 1.097.37 1.467-.238 1.468-1.321 3.041-.594 6.083.726 3.04 3.673 2.433 4.479 2.803.227.105.44.238.634.397v.079-.066c.158-.222.335-.43.529-.622.673-.608 3.197-.952 3.343-3.702.145-2.75-.82-3.768-1.203-5.025z"/><path opacity=".87" d="M220.655 77.693c.145-2.644-.965-3.742-1.322-4.998-.092-.33.001-.9-.066-1.56a3.54 3.54 0 00-3.527-2.235l1.109 13.09c.152-.207.319-.402.503-.581.634-.569 3.157-.913 3.303-3.716z"/></g><path d="M209.146 40.366c-1.572 4.072-3.726 5.91-2.642 9.771 1.083 3.861-5.352 17.467-5.933 16.29-3.515-7.087-18.115-20.904-18.115-20.904s4.109-10.287 4.902-13.553c.793-3.266 21.788 8.396 21.788 8.396z" fill="#FFA47C"/><path style="mix-blend-mode:multiply" d="M195.154 34.932l7.306 1.679c-.105.595 3.674 6.294 3.568 8.793-2.325 2.433-18.591 15.034-22.172 14.412-2.973-.502-2.034-5.553-3.567-7.933.885-2.949 6.976-20.125 7.095-20.826l7.77 3.875z" fill="url(#paint0_linear)"/><path d="M181.557 18.562c-.476 2.988 2.141 13.58 1.982 14.148-.158.569-.634 2.645-1.189 2.34-.555-.304 3.554 2.817 4.677 1.97 1.124-.846 4.321-14.227 3.964-15.073-.356-.846-9.434-3.385-9.434-3.385z" fill="#000"/><path d="M189.221 21.683c.885-8.33 0-16.555 12.777-15.378 15.988 1.454 13.781 10.472 13.068 20.666-.714 10.195-5.972 21.83-13.993 20.244-8.945-1.798-13.213-7.669-13.557-14.941-1.625-.992-2.642-3.967-2.642-6.519.119-3.332 1.599-6.056 4.347-4.072z" fill="#FFA47C"/><path d="M197.836 19.95c-1.942 10.327-1.929 25.123 3.739 26.948 6.871 1.401 9.329-3.293 12.09-10.076 2.233-6.968 4.955-16.422 3.198-22.61-1.176-3.967-2.643-6.056-5.55-6.836-5.774.74-11.892 4.059-13.477 12.574z" fill="#FFBD95"/><path d="M206.53 6.146l-.211-.78s-3.105-2.34-2.484-2.274c.37 0 1.717-.873 2.272.899l.516.198 5.721.159c1.054 0 2.072.38 2.867 1.07l2.009 1.958s-.41 1.203-.41-.542c1.652.74 2.26 4.852 1.863 7.788a27.35 27.35 0 010 2.948 37.158 37.158 0 01-1.797 9.044l-.912.424s3.013-10.116-.607-13.606c-3.621-3.491-13.293-2.076-13.293-2.076l4.466-5.21z" fill="#1E1E1E"/><path d="M183.513 9.505c1.638-2.407 4.572-5.91 6.606-6.612C191.375.976 202.817.25 202.527 1.888c0 0 7.227-.634 7.65 1.323A5.453 5.453 0 01215.462 6c2.154 2.644 2.313 6.373 1.652 9.533-.714 3.398-7.584 2.883-15.552-1.692a11.129 11.129 0 00-8.126 3.213c-1.202 1.613-2.709 8.793-2.709 8.793l-2.233-1.891-.7-3.32-6.052 2.037s-1.506-8.33 1.771-13.17zm-23.797 109.614c-6.488 7.286-10.425 20.204-10.095 25.427.449 7.312 15.631 9.454 15.631 9.454l7.928-1.6c4.268 0 11.971-5.566 17.759-5.566 5.787 0 35.517 8.475 33.68 0-1.321-5.99-9.249-25.718-15.076-27.318-5.827-1.6-49.827-.397-49.827-.397zm54.808 99.01c-.555 4.086-.489 13.725 2.035 16.899a6.81 6.81 0 004.677.859c2.498-.582 2.92.397 4.387 2.129 1.467 1.732 10.571 3.266 14.786 2.473 5.021-.952 6.461-3.465 0-7.511-7.651-4.773-12.17-9.256-13.927-13.844-1.757-4.588-11.958-1.005-11.958-1.005z" fill="#000"/><path d="M230.419 133.889c3.832 1.534 9.593 4.429 11.073 14.082 1.321 8.475-4.558 78.528-4.558 78.528l-6.145 1.798s-3.356-66.694-2.761-75.87c1.453-22.32 3.475-18.102 2.391-18.538z" fill="#1E1E1E"/><path d="M212.82 126.722c13.028 4.588 22.118 7.087 23.678 13.685 1.559 6.598-5.074 87.89-5.074 87.89s-18.248 1.045-18.248-.105c0-1.151-2.18-73.174-2.444-75.131-.264-1.957 2.088-26.339 2.088-26.339zm-40.578 106.904c-.185-3.041 1.493-5.038-.674-20.614-.251-1.878 15.142-3.094 15.142-3.094-.343 7.695-1.321 14.783 7.122 23.721 4.374 4.588 9.157 11.173 1.956 12.522-8.84 1.666-15.446-1.653-18.089-7.048-.172-.357-.806-.172-.806-.172s-4.308.159-4.651-5.315z" fill="#000"/><path d="M184.821 132.209c-7.783-3.332-13.755-2.644-17.402 6.215-3.647 8.859-3.012 26.141-2.193 41.572.555 10.578 3.435 48.539 3.435 48.539h9.342l15.327-1.322s1.07-61.551 1.07-67.131c0-5.579-.462-23.972-9.579-27.873z" fill="#000"/><path d="M118.966 29.814c-.924 4.046-9.579 20.23-13.873 24.858-4.295 4.628-4.189 2.248-4.189 2.248l20.097 14.32s4.942-9.679 12.685-10.961c4.677-.794-14.72-30.465-14.72-30.465z" fill="#FFA47C"/><path d="M115.492 36.478c.383-11.9 7.28-22.478 18.498-19.926 12.209 2.75 12.354 7.484 11.509 19.424a83.735 83.735 0 01-.912 7.656c.674 3.86 1.599 7.63.978 8.25a6.604 6.604 0 01-3.053.741c-1.902 6.611-4.294 10.155-7.822 9.904-3.964-.265-14.349-2.75-18.062-9.349-2.061-3.61-1.335-10.3-1.136-16.7z" fill="#FFBD95"/><path d="M146.873 21.431c2.153 5.461 1.321 8.317-1.546 8.502-2.868.185-7.109-1.692-9.091-.119-1.982 1.574-4.968 1.653-6.369 2.645-1.4.991 1.322-4.681 1.322-4.681l-2.445 4.363.515-4.31-.951 2.182-4.558 3.12-.436 5.461-3.172 2.076-3.554-2.909-.687 6.254-8.02 6.334s-1.322-5.937-1.93-9.877c-.753-4.681-1.321-3.24-1.162-5.884.145-2.41.414-4.811.806-7.194.502-3.371 4.756-10.577 6.989-11.225 2.233-.648 3.594-1.058 4.704-.49 1.11.569 1.242-1.97 4.493-2.723 3.25-.754 3.171-1.323 7.835-1.323s9.249 3.65 12.976 5.58a14.245 14.245 0 014.281 4.218z" fill="#8D3B26"/><path d="M119.786 35.804c-1.203-2.645-4.585-2.816-5.563-.714-.978 2.102-.436 9.956 3.488 11.04 3.925 1.085 2.075-10.326 2.075-10.326z" fill="#FFA47C"/><path d="M156.056 125.294a10.777 10.777 0 00-.119 7.457c.418 1.703.661 3.445.727 5.197l3.448.145.727-3.49a30.562 30.562 0 014.928 4.442c.132.133 14.138.622 14.138.622s.516-3.888-4.307-4.628a32.766 32.766 0 01-14.072-5.805 28.589 28.589 0 00-5.47-3.94z" fill="#11103D"/><path d="M152.396 128.507a11.136 11.136 0 000 7.722c.468 1.769.751 3.581.845 5.408l3.581.079.687-3.649a14.602 14.602 0 015.101 3.782c.132.145 14.679.37 14.679.37s.555-3.306-4.466-3.967c-6.527-.859-12.935-4.191-14.693-5.752a30.11 30.11 0 00-5.734-3.993z" fill="#1E345B"/><path d="M146.199 221.051c1.599 4.483.436 9.256-.185 15.312-.621 6.056-2.035 10.578 3.964 11.9 5.998 1.322 35.834.727 35.834.727s5.351-7.14-8.206-8.845c-10.57-1.323-16.014-10.684-15.71-19.477.145-2.208-15.697.383-15.697.383zm-46.18 4.575a34.397 34.397 0 00-6.884 21.699c0 2.261 7.003 3.424 7.003 3.424s4.426-.225 10.372 5.038c4.889 4.324 16.768 3.015 18.855 2.314 2.088-.701 7.387-5.924 2.141-9.256-3.885-2.512-11.76-4.8-13.689-8.052-6.884-11.61 1.15-14.439 1.15-14.439l-18.948-.728z" fill="#000"/><path d="M111.633 137.855c41.265 8.265 53.831 2.962 56.249 20.165 2.219 15.867 1.321 72.023 1.321 72.023l-29.069-.807s-11.892-41.069-3.092-62.622c2.643-6.518-65.749-18.233-65.749-18.233l40.34-10.526z" fill="#000"/><path d="M97.323 139.085c5.048 2.975 44.119 3.755 46.418 18.908 3.158 20.879-13.028 61.406-17.481 81.98l-32.584-4.8s5.114-44.771 15.433-63.468c1.612-2.922-47.937 0-52.297-8.396-8.14-15.576 3.805-30.333 3.805-30.333l36.706 6.109z" fill="#001D7A"/><path d="M288.716 129.565H127.7v134.089h161.016V129.565z" fill="#96A6BC"/><path d="M116.8 137.67l1.849-4.191s4.268-8.079 4.876-29.341c.397-15.351 1.612-26.908-1.427-32.752-1.176-2.235-16.741-19.953-16.741-19.953C95.83 57.767 85.709 62.95 79.763 78.05c-9.923 25.202-11.997 32.448-17.177 38.187-4.585 5.037-7.835 16.726.317 20.243-.066-.013 53.038 8.74 53.897 1.19z" fill="#001D7A"/><path d="M95.989 125.069h235.128l-44.753-24.898-164.332.529-26.043 24.369z" fill="#96A6BC"/><path d="M203.134 116.726l-43.934.45-4.267-11.226 39.309-.133 8.892 10.909z" fill="#F2F5F9"/><path d="M163.918 114.042l-3.119-6.122-.211.092 3.118 6.135.212-.105zm2.325 0l-3.158-6.109-.211.079 3.158 6.122.211-.092zm2.326-.014l-3.224-6.108-.199.092 3.211 6.109.212-.093zm2.312-.013l-3.277-6.082-.198.079 3.263 6.109.212-.106zm2.299-.013l-3.317-6.069-.198.079 3.304 6.096.211-.106zm2.286 0l-3.356-6.069-.198.092 3.356 6.07.198-.093zm2.299-.013l-3.422-6.056-.185.092 3.409 6.056.198-.092zm2.286-.013l-3.462-6.043-.198.079 3.448 6.069.212-.105zm2.259 0l-3.488-6.056-.198.092 3.501 6.056.185-.092zm2.273-.014l-3.554-6.029-.185.079 3.541 6.043.198-.093zm2.259-.013l-3.594-6.029-.198.092 3.607 6.03.185-.093zm2.247-.013l-3.634-6.003-.185.079 3.634 6.03.185-.106zm2.246-.013l-3.673-6.003-.199.092 3.687 6.016.185-.105zm2.246 0l-3.726-6.003-.198.092 3.739 6.003.185-.092z" fill="#96C3F2"/><path d="M233.643 122.597l-46.695-.278-6.223-13.288 38.701-.172 14.217 13.738z" fill="#fff"/><path d="M330.985 124.805H95.857v12.482h235.128v-12.482z" fill="#6A7B9B"/><path d="M106.559 48.736l-6.606 5.104s-.132.608 8.35 10.921c3.594 4.311 12.579 16.555 12.579 16.555l5.735-11.067s-9.408-8.529-15.856-15.563a33.458 33.458 0 01-4.202-5.95z" fill="#00033D"/><path d="M155.091 60.213c-4.334 3.663-14.865 38.808-12.896 42.828 1.969 4.019 19.82 7.338 35.081 5.871 11.403-1.085 9.012-4.642 9.012-4.642s-.146-7.206 0-9.837c.277-4.919-21.564-4.509-21.564-4.509a21.669 21.669 0 007.095-17.348c-.423-11.649-9.619-18.38-16.728-12.363z" fill="#001D7A"/><path d="M233.776 97.064c-.066-1.613-3.859-3.147-6.303-4.945 0 0-8.879.833-14.27 3.834-1.322.701-1.811 1.574-3.964 3.808-1.573 1.653-1.018 2.883.938 1.746a16.633 16.633 0 003.105-2.473l2.986-1.23s-2.246 1.323-2.841 1.64c-.594.317-3.065 3.028-3.805 3.61-1.07.82-.833 2.459 1.031 1.573a23.776 23.776 0 003.633-2.419c1.321-.767 3.66-1.904 3.66-1.904-2.55 1.705-6.408 3.768-7.016 4.958-.608 1.19.581 2.208 2.326.701a16.557 16.557 0 015.998-3.451l-4.822 2.948s-1.124 2.01 1.321.9c6.369-2.843 11.892-4.099 13.557-5.62 1.506-1.31 4.518-2.525 4.466-3.676z" fill="#FFA47C"/><path d="M237.528 103.781c7.109-3.279 2.775-13.223-.713-14.783-1.864.82-12.038 1.825-12.038 1.825s5.127 3.213 4.044 12.508l8.707.45z" fill="#001D7A"/><path d="M182.707 103.305c-.251-1.692 3.395-4.06 5.602-6.44 0 0 9.447-.925 15.684 1.125 1.467.489 2.233 1.322 4.889 3.186 1.982 1.428 1.638 2.817-.621 2.023a18.885 18.885 0 01-3.766-1.943l-3.369-.701 3.316 1.137c.687.264 3.806 2.552 4.704 3.015 1.321.648 1.321 2.406-.766 1.851a25.676 25.676 0 01-4.281-1.798c-1.52-.543-4.228-1.243-4.228-1.243 3.025 1.322 7.478 2.644 8.363 3.755.886 1.11-.185 2.433-2.299 1.203a17.696 17.696 0 00-6.989-2.38l5.681 2.049s1.586 1.878-1.255 1.217c-7.241-1.679-13.213-1.891-15.327-3.134-1.758-1.031-5.167-1.705-5.338-2.922z" fill="#FFBD95"/><path d="M181.293 106.994c-.198-2.473-1.321-12.548 2.352-14.161a89.3 89.3 0 009.513 2.433s-3.316 9.679-2.774 13.778l-9.091-2.05z" fill="#142163"/><path d="M141.601 99.84c4.096-.951 11.033-2.842 13.213-2.525a30.882 30.882 0 017.716 2.645c.899.608 4.215 2.975 3.898 3.398-.172.225-.462.159-.713.238.792.925 1.043 1.798-.555 1.415-.701-.172-2.365-1.746-2.986-1.851-.133 0-.225-.172-.357-.199 2.14 1.098 3.66 2.751 2.642 3.108-1.017.357-2.642-1.323-4.651-1.891-3.224-.82-6.487-1.944-6.144-.952.489 1.467 3.237.925 4.704 3.067.793 1.164-.925 1.243-2.339.463-1.413-.78-7.254.463-9.13-.489a20.648 20.648 0 00-6.606-1.891c-.74.185 1.308-4.535 1.308-4.535z" fill="#FFA47C"/><path d="M146.291 98.32l-3.435-.767s-11.403-1.811-18.274-7.43c-1.506-1.217-1.493 11.278-1.493 11.278s-10.095 4.76-6.091 5.289c4.003.529 20.44.939 21.445-.278a9.083 9.083 0 014.836 0s1.902-7.973 3.012-8.092z" fill="#00033D"/><path d="M151.471 106.32c2.008-.331 9.659-2.433 12.619-2.023a1.8 1.8 0 01.898.41 7.037 7.037 0 013.739 2.393c.146.476.899 1.639-.37 1.547a15.219 15.219 0 01-2.259-.436v.158c1.321.542 2.709 1.322 2.378 2.182-.33.859-1.387.793-2.457.714.845.278 1.572.74 1.453 1.573s-1.255 1.323-2.365 1.323c.846.066 1.559.251 1.321.727-.436.925-3.845 2.446-5.8 2.168a16.321 16.321 0 01-7.624.45l-13.213-.331 6.025-9.731s3.647-.794 5.655-1.124z" fill="#FFBD95"/><path d="M136.289 120.957c-6.395 2.459-18.604 2.089-25.105 0-8.919-2.909-9.487-5.289-16.12-15.021-6.633-9.732-13.821-38.967 1.268-41.466 6.131-.991 11.892 3.69 17.177 20.495 2.973 9.388 7.505 13.527 7.505 13.527s23.084 6.148 23.48 8.198c1.652 8.224-3.514 12.469-8.205 14.267z" fill="#00033D"/><path d="M148.471 106.32l-12.354-.899-1.704 14.69 10.649-.41s4.044-3.041 3.409-13.381z" fill="#001D7A"/><path opacity=".85" d="M93.861 87.32c0-5.806 8.536-10.407 13.451-4.986l2.498 11.001-4.057 4.589-6.606-.767-5.286-9.838z" fill="#FFA61D"/><path opacity=".64" d="M151.735 69.76c3.198-3.967 11.43-2.394 11.813 3.966l-4.347 8.806-5.286.886-3.964-4.138 1.784-9.52z" fill="#FF9100"/><path d="M183.883 39.348c1.453 6.85 10.755 17.943 10.755 17.943l-13.86 1.811-3.793-14.544 6.898-5.21z" fill="#001D7A"/><path d="M193.436 56.14s7.016 6.85 7.796 13.5c-7.136-12.415-11.06-8.37-12.355-9.03-1.295-.661 4.559-4.47 4.559-4.47zm12.143-.026l8.43 2.116s-2.643-5.461-3.687-6.969a21.032 21.032 0 00-4.955-4.27c.454 1.61.628 3.288.516 4.958-.146 2.803-.304 4.165-.304 4.165z" fill="#001D7A"/><path d="M201.786 66.771c1.639-3.279 6.818-8.197 7.638-8.197.819 0-3.132-4.721-3.132-4.721s-5.8 11.067-4.717 12.707c1.084 1.64.211.211.211.211zm-23.545-12.878c-3.687 1.64-12.024 6.69-14.072 9.97-2.048 3.278-6.607-.953-6.607-3.822 0-2.87 12.5-11.067 17.415-12.707 4.915-1.64 3.264 6.559 3.264 6.559z" fill="#001D7A"/><path d="M211.551 51.129a51.07 51.07 0 0011.258 6.757c1.228.198 1.228 2.459 1.228 4.099 0 1.64-9.421-4.72-10.861-5.29-1.44-.568-1.625-5.566-1.625-5.566z" fill="#142163"/><defs><linearGradient id="paint0_linear" x1="177.44" y1="50.725" x2="229.692" y2="20.836" gradientUnits="userSpaceOnUse"><stop stop-color="#fff"/><stop offset=".52" stop-color="#C6C0B9"/></linearGradient></defs></svg>