<svg width="328" height="301" fill="none" xmlns="http://www.w3.org/2000/svg"><circle cx="177.013" cy="150.394" r="150.394" fill="#506AE4"/><path d="M278.617 215.358H130.401v25.924h148.216v-25.924z" fill="#57332C"/><path d="M204.509 225.363c40.929 0 74.108-4.479 74.108-10.005 0-5.526-33.179-10.006-74.108-10.006-40.928 0-74.108 4.48-74.108 10.006s33.18 10.005 74.108 10.005z" fill="#824D41"/><path d="M278.617 240.346c0-5.533-33.175-10.107-74.108-10.107-40.932 0-74.108 4.473-74.108 10.107 0 5.635 33.176 10.107 74.108 10.107 40.933 0 74.108-4.573 74.108-10.107zm-74.108-18.445c37.022 0 67.034-4.05 67.034-9.045 0-4.996-30.012-9.046-67.034-9.046-37.021 0-67.033 4.05-67.033 9.046 0 4.995 30.012 9.045 67.033 9.045z" fill="#57332C"/><path d="M271.543 199.364H137.476v12.785h134.067v-12.785z" fill="#57332C"/><path d="M204.509 209.42c37.022 0 67.034-4.05 67.034-9.046 0-4.996-30.012-9.045-67.034-9.045-37.021 0-67.033 4.049-67.033 9.045 0 4.996 30.012 9.046 67.033 9.046z" fill="#824D41"/><path d="M204.509 206.312c34.496 0 62.46-3.778 62.46-8.439s-27.964-8.439-62.46-8.439-62.46 3.778-62.46 8.439 27.964 8.439 62.46 8.439z" fill="#57332C"/><path d="M266.944 192.869H142.049v5.938h124.895v-5.938z" fill="#57332C"/><path d="M204.509 201.309c34.496 0 62.46-3.778 62.46-8.439s-27.964-8.439-62.46-8.439-62.46 3.778-62.46 8.439 27.964 8.439 62.46 8.439z" fill="#824D41"/><path d="M13.996 208.232a7 7 0 10-13.995-.299 7 7 0 0013.995.299z" fill="#57332C"/><path d="M3.814 210.481a18.271 18.271 0 012.93-18.647c7.58-9.248 34.667-26.657 47.578-35.197 12.912-8.541 34.085-28.729 34.085-28.729s6.115-1.819 9.577 1.794c3.461 3.613 7.15 6.342-1.845 14.276a377.574 377.574 0 00-29.815 28.804c-5.458 6.595-27.794 32.317-40.756 38.179-15.69 7.074-21.754-.48-21.754-.48z" fill="#57332C"/><path d="M90.808 125.382s13.543-10.36 17.081-19.279c3.537-8.919 7.378-17.181 13.694-16.701l17.157 18.394a5.715 5.715 0 01-.936 7.652 5.718 5.718 0 01-2.501 1.242c-7.378 2.527-25.267 11.775-34.413 20.214l-10.082-11.522z" fill="#57332C"/><path d="M87.473 134.174s-4.195-5.988-3.209-9.071c.985-3.082 8.187-5.382 10.915-.505a22.085 22.085 0 007.808 8.49 5.948 5.948 0 013.673 3.346 5.95 5.95 0 01-.136 4.967c-2.021 4.75-10.89 3.79-19.051-7.227z" fill="#693D35"/><path d="M109.278 80.886l41.21 42.146a172.468 172.468 0 0149.65-45.885A304.607 304.607 0 00161.1 35.305s-32.771 8.11-51.822 45.581z" fill="orange"/><path d="M157.361 127.252s13.467-.202 12.836 12.937c0 0 14.402-23.979 47.451-42.954 0 0-13.467 5.382-12.507-10.991 0 .076-29.992 13.037-47.78 41.008z" fill="#57332C"/><path d="M206.808 85.334a155.935 155.935 0 00-50.18 45.329 2.22 2.22 0 01-2.45.753 2.217 2.217 0 01-.784-.449l-6.165-4.751a2.524 2.524 0 01-.607-3.436 165.855 165.855 0 0153.364-48.21 2.527 2.527 0 013.361.96l4.093 6.62a2.222 2.222 0 01-.632 3.184zm17.864 22.563a123.66 123.66 0 00-44.646 40.427 2.084 2.084 0 01-1.516.66 2.08 2.08 0 01-1.516-.66l-6.039-4.876a2.526 2.526 0 01-.758-3.31 131.163 131.163 0 0147.451-42.954 2.526 2.526 0 013.234 1.086l4.195 6.494a2.048 2.048 0 01-.405 3.133z" fill="#824D41"/><path d="M219.114 104.789c7.58 8.363 6.14 25.848-5.584 36.587-11.724 10.738-29.285 10.637-36.941 2.274l42.525-38.861z" fill="#824D41"/><path d="M143.641 16.885s-3.613 12.861 9.551 13.265a141.491 141.491 0 00-51.014 45.254s12.861-14.63-3.537-14.984c-.101 0 15.64-28.02 45-43.535z" fill="#57332C"/><path d="M161.328 36.544a156.093 156.093 0 00-49.093 46.517 2.253 2.253 0 01-3.235.378l-6.266-4.598a2.524 2.524 0 01-.682-3.436 165.396 165.396 0 0152.201-49.448 2.527 2.527 0 013.386.884l4.245 6.494a2.216 2.216 0 01.421 1.726 2.222 2.222 0 01-.977 1.483zm-18.167-16.551a128.412 128.412 0 00-45.91 42.347 2.12 2.12 0 01-3.133 0l-6.317-5.053a2.703 2.703 0 01-.834-3.436 136.44 136.44 0 0148.791-45 2.678 2.678 0 013.361 1.11c1.465 2.224 2.956 4.448 4.421 6.697a2.126 2.126 0 01.629 1.76 2.129 2.129 0 01-1.008 1.575z" fill="#824D41"/><path d="M137.173 15.597c-7.58-9.046-25.646-10.107-38.356.455-12.709 10.561-15.16 28.526-7.58 37.597l45.936-38.052z" fill="#824D41"/></svg>