<svg width="180" height="25" fill="none" xmlns="http://www.w3.org/2000/svg"><path d="M0 24.586h11.645c5.525 0 9.162-2.21 9.162-6.63v-.07c0-3.245-1.748-4.868-4.58-5.938 1.748-.967 3.216-2.487 3.216-5.215v-.069c0-1.657-.56-3.004-1.678-4.109-1.399-1.381-3.602-2.14-6.4-2.14H0v24.17zm5.246-14.4v-5.11h5.315c2.273 0 3.532.898 3.532 2.486v.07c0 1.795-1.504 2.555-3.882 2.555H5.246zm0 9.738v-5.318h6.224c2.763 0 3.987 1.002 3.987 2.625v.069c0 1.795-1.434 2.624-3.812 2.624h-6.4zm19.991 4.662h5.386V16.85h4.231l5.245 7.735h6.295l-5.98-8.633c3.112-1.14 5.246-3.591 5.246-7.493v-.07c0-2.278-.735-4.177-2.098-5.524C41.952 1.278 39.54.414 36.428.414h-11.19v24.172zm5.386-12.431v-6.94h5.35c2.623 0 4.231 1.173 4.231 3.452v.07c0 2.037-1.503 3.418-4.126 3.418h-5.455zM62.398 25c7.554 0 13.044-5.628 13.044-12.5v-.07C75.442 5.56 70.022 0 62.468 0c-7.553 0-13.044 5.628-13.044 12.5v.07c0 6.87 5.42 12.43 12.974 12.43zm.07-4.903c-4.336 0-7.413-3.453-7.413-7.597v-.07c0-4.143 3.007-7.527 7.343-7.527 4.337 0 7.414 3.453 7.414 7.597v.07c0 4.143-3.007 7.527-7.344 7.527zm17.752 4.489h9.546c7.694 0 13.009-5.284 13.009-12.086v-.07c0-6.802-5.315-12.016-13.009-12.016H80.22v24.172zm5.385-4.8V5.214h4.161c4.406 0 7.379 3.004 7.379 7.286v.07c0 4.28-2.972 7.216-7.379 7.216h-4.161zm32.18 5.179c6.575 0 10.736-3.59 10.736-10.911V.414h-5.385v13.847c0 3.833-1.994 5.801-5.281 5.801s-5.28-2.037-5.28-5.974V.414h-5.386v13.813c0 7.113 4.022 10.738 10.596 10.738zm16.221-.379h9.547c7.694 0 13.009-5.284 13.009-12.086v-.07c0-6.802-5.315-12.016-13.009-12.016h-9.547v24.172zm5.386-4.8V5.214h4.161c4.406 0 7.379 3.004 7.379 7.286v.07c0 4.28-2.973 7.216-7.379 7.216h-4.161zm21.969 4.8H180v-4.731h-13.289v-5.076h11.54v-4.73h-11.54V5.144h13.114V.415h-18.464v24.17z" fill="#fff"/></svg>