<svg width="175" height="33" fill="none" xmlns="http://www.w3.org/2000/svg"><path fill-rule="evenodd" clip-rule="evenodd" d="M3.995 0h9.84c-6.021 10.886-4.371 24.199 0 32.652h-9.84C-.474 24.777-2.125 11.37 3.995 0z" fill="#fff"/><path fill-rule="evenodd" clip-rule="evenodd" d="M17.208 0h6.537c-6.022 10.886-4.372 24.199 0 32.652h-6.537c-4.47-7.875-6.12-21.282 0-32.652z" fill="#fff"/><path fill-rule="evenodd" clip-rule="evenodd" d="M26.924 0h6.537c-6.022 10.886-4.372 24.199 0 32.652h-6.537c-4.47-7.875-6.12-21.282 0-32.652z" fill="#fff"/><path d="M44.84 4.57h-1.293v11.649h1.293v-5.013l.332-.33 4.768 5.343h1.782L46.098 10l5.45-5.431H49.8l-4.96 4.995V4.57zm8.315 11.649h1.257v-3.126h3.423v3.126h1.258V8.97h-1.258v2.97h-3.423V8.97h-1.257v7.248zm7.475 0h1.502l2.06-2.916h.769v2.916h1.258V8.97h-2.533c-.717 0-1.502.018-2.13.612-.402.366-.646.943-.646 1.621 0 .679.278 1.17.575 1.451.524.506 1.31.576 1.398.576l-2.253 2.986v.002zm4.331-3.964h-1.188c-.297 0-.75.018-1.117-.21-.315-.193-.455-.489-.455-.873 0-.472.245-.75.455-.89.262-.159.629-.193 1.134-.193h1.171v2.166zm4.576-1.433c.142-.256.346-.472.594-.628a1.84 1.84 0 01.995-.278c.227 0 .63 0 .927.26.193.158.315.438.315.752 0 .332-.193.54-.384.663-.106.07-.368.192-.944.192h-.613v1.153h.734c.332 0 .821 0 1.187.246.246.157.437.437.437.839 0 .521-.261.855-.506 1.013-.384.261-.944.278-1.223.278-.384 0-.788-.072-1.188-.37a1.912 1.912 0 01-.648-.82l-1.08.456c.21.456.542.927.96 1.24.612.476 1.293.616 1.94.616.787 0 1.536-.175 2.06-.563a2.302 2.302 0 00.944-1.867 1.916 1.916 0 00-.506-1.33 1.692 1.692 0 00-.841-.471c.367-.228.821-.665.821-1.52 0-.509-.157-.978-.628-1.38-.543-.454-1.136-.507-1.714-.507-.472 0-1.031.07-1.59.402-.349.209-.681.56-.926.907l.874.717h.003zm11.808 2.969c-.174.383-.43.723-.751.995-.417.352-.891.527-1.483.527-1.257 0-2.288-.962-2.305-2.464h5.642c.034-.96-.228-2.08-.681-2.726-.437-.628-1.328-1.327-2.743-1.327-2.183 0-3.51 1.677-3.51 3.843 0 2.687 1.833 3.794 3.58 3.794.927 0 1.746-.3 2.409-.893a4.37 4.37 0 00.89-1.171l-1.048-.578zm-4.454-1.992c.191-1.082 1.066-1.885 2.13-1.885 1.066 0 1.922.75 2.132 1.885H76.89zm7.475-2.83v7.25h3.127c.578 0 1.274-.155 1.712-.489.4-.313.751-.873.751-1.641 0-.56-.175-1.014-.577-1.398a1.937 1.937 0 00-.908-.489c.436-.277.785-.734.785-1.45 0-.733-.366-1.151-.629-1.361-.506-.402-1.133-.42-1.518-.42l-2.743-.002zm1.258 2.952V10.09h1.118c.384 0 .716-.018 1.014.174a.813.813 0 01.349.699c0 .436-.21.649-.35.75-.277.194-.681.21-.804.21h-1.327zm0 3.179v-2.13h1.607c.35 0 .821.017 1.134.261.245.192.368.49.368.82 0 .331-.192.629-.417.804-.316.227-.787.245-1.136.245h-1.556zm10.322-6.13v7.758l4.962-5.346v4.837h1.257V8.412l-4.963 5.346V8.971l-1.256-.002zm12.663 0v7.249h1.258v-6.096h3.32v6.096h1.257V8.97l-5.835-.002zM122.374 10c-.333-.437-1.085-1.205-2.481-1.205-1.851 0-3.528 1.293-3.528 3.791 0 2.55 1.694 3.845 3.528 3.845 1.274 0 2.06-.685 2.481-1.228v1.013h1.256V8.971h-1.256V10zm-2.342-.086c1.119 0 2.409.82 2.409 2.69 0 1.43-.873 2.708-2.409 2.708-1.501 0-2.375-1.17-2.375-2.726 0-1.765 1.136-2.672 2.375-2.672zm7.234 5.292c.54.7 1.361 1.227 2.531 1.227 2.202 0 3.475-1.802 3.475-3.794 0-1.955-1.258-3.843-3.529-3.843a3.112 3.112 0 00-2.477 1.188V8.97h-1.259v11.337h1.259v-5.102zm2.356.107c-1.483 0-2.428-1.204-2.428-2.692 0-1.745 1.242-2.706 2.412-2.706 1.169 0 2.375.943 2.375 2.724 0 1.45-.891 2.674-2.359 2.674zm10.324-5.188V8.97h-5.8v1.152h2.27v6.096h1.257v-6.096l2.273.002zm1.327 6.095h1.259v-3.127h3.422v3.126h1.257V8.97h-1.257v2.97h-3.422V8.97h-1.259v7.25zm13.712-2.428a2.83 2.83 0 01-.751.995c-.42.37-.892.527-1.485.527-1.275 0-2.305-.962-2.323-2.463h5.659c.035-.961-.226-2.08-.682-2.726-.435-.629-1.327-1.327-2.741-1.327-2.201 0-3.529 1.677-3.529 3.842 0 2.687 1.853 3.795 3.598 3.795.75 0 1.641-.194 2.409-.894a4.35 4.35 0 00.893-1.172l-1.05-.578.002.001zM150.53 11.8c.193-1.082 1.065-1.885 2.131-1.885 1.065 0 1.921.75 2.131 1.885h-4.262zm-.209-5.188a.872.872 0 10.873-.872.886.886 0 00-.874.87l.001.002zm3.039 0a.866.866 0 00.538.808.874.874 0 10.336-1.68.886.886 0 00-.876.87l.002.002zm5.904 8.593c.542.7 1.362 1.228 2.532 1.228 2.201 0 3.474-1.802 3.474-3.795 0-1.955-1.257-3.842-3.527-3.842a3.12 3.12 0 00-2.481 1.187V8.971h-1.257v11.337h1.257v-5.102h.002zm2.359.108c-1.487 0-2.428-1.205-2.428-2.692 0-1.746 1.239-2.706 2.409-2.706 1.169 0 2.374.942 2.374 2.723 0 1.45-.891 2.675-2.356 2.675h.001zm5.57.905h2.533c.717 0 1.503-.015 2.131-.61.315-.295.649-.837.649-1.624 0-.733-.281-1.241-.561-1.52-.648-.664-1.555-.716-2.201-.716h-1.291v-2.78h-1.259v7.25h-.001zm1.258-1.117v-2.234h1.188c.402 0 .804 0 1.118.208.366.228.454.594.454.91 0 .555-.314.819-.472.926-.296.173-.698.19-1.118.19h-1.17zm4.926 1.117h1.257V8.971h-1.257v7.248zM43.423 26.993l.654-4.599 2.22 4.877 2.25-4.88.624 4.602h.754l-1.03-6.988-2.588 5.59-2.537-5.581-1.1 6.979h.753zm9.772.119c1.25 0 2.181-.912 2.181-2.163s-.922-2.168-2.181-2.168c-1.26 0-2.177.92-2.177 2.168 0 1.248.931 2.163 2.177 2.163zm0-3.697c.754 0 1.447.524 1.447 1.534 0 1.001-.703 1.529-1.447 1.529-.733 0-1.447-.515-1.447-1.529 0-1 .695-1.534 1.447-1.534zm6.492-.238a2.173 2.173 0 00-1.279-.396c-1.268 0-2.2.92-2.2 2.18 0 1.24.922 2.151 2.2 2.151.471.002.93-.147 1.31-.426v-.851a1.766 1.766 0 01-1.33.643c-.733 0-1.447-.527-1.447-1.528 0-1.002.695-1.534 1.458-1.534.366 0 .911.139 1.288.613v-.852zm1.12-.298v4.114h.713v-1.597l.219-.209 1.605 1.807h.932l-2.002-2.28 1.785-1.835h-.873l-1.665 1.686V22.88h-.714zm6.105 4.233c1.25 0 2.18-.912 2.18-2.163s-.921-2.168-2.18-2.168c-1.259 0-2.183.92-2.183 2.168 0 1.248.932 2.163 2.18 2.163h.003zm0-3.697c.753 0 1.447.524 1.447 1.534 0 1.001-.704 1.529-1.447 1.529-.734 0-1.447-.515-1.447-1.529 0-1 .695-1.534 1.447-1.534zm3.27-.536v4.114h1.774c.327 0 .723-.089.972-.278.228-.178.426-.497.426-.932a1.03 1.03 0 00-.326-.793 1.078 1.078 0 00-.516-.277.93.93 0 00.446-.826.95.95 0 00-.356-.77c-.288-.232-.644-.24-.863-.24l-1.557.002zm.714 1.674v-1.04h.635c.217 0 .405-.008.575.099a.463.463 0 01.198.396.5.5 0 01-.198.426c-.16.11-.387.12-.457.12h-.753zm0 1.807v-1.211h.912c.198 0 .463.01.644.149a.57.57 0 01.207.463.594.594 0 01-.237.456c-.178.13-.445.139-.644.139l-.882.004zm6.769-3.182a2.17 2.17 0 00-1.279-.396c-1.268 0-2.2.92-2.2 2.18 0 1.24.922 2.151 2.2 2.151a2.19 2.19 0 001.308-.426v-.852a1.76 1.76 0 01-1.327.643c-.734 0-1.448-.527-1.448-1.528 0-1.002.695-1.534 1.457-1.534.367 0 .912.139 1.289.613v-.852.001zm1.12-.298v4.113h.714v-1.597l.218-.209 1.605 1.807h.932l-2.002-2.279 1.784-1.835h-.872l-1.668 1.687V22.88h-.711zm7.334.584a1.704 1.704 0 00-1.407-.682c-1.051 0-2.002.733-2.002 2.15 0 1.449.961 2.181 2.002 2.181a1.738 1.738 0 001.407-.694v.574h.713V22.88h-.713v.584zm-1.329-.046c.635 0 1.368.463 1.368 1.525 0 .813-.495 1.537-1.368 1.537-.851 0-1.347-.665-1.347-1.547 0-1 .644-1.515 1.347-1.515zm2.916 3.575h.852l1.17-1.656h.433v1.656h.715V22.88h-1.439c-.405 0-.852.008-1.21.345-.225.208-.365.536-.365.923s.159.665.327.823c.298.286.745.327.792.327l-1.275 1.695zm2.455-2.252h-.673c-.168 0-.426.012-.635-.116-.178-.11-.257-.278-.257-.498a.588.588 0 01.257-.506c.15-.086.358-.107.644-.107h.664v1.227zm5.284-4.357h-.734v6.609h.734v-2.845l.186-.188 2.707 3.033h1.011l-3.191-3.53 3.091-3.08h-.99l-2.813 2.833v-2.833zm6.64 6.729c1.248 0 2.18-.912 2.18-2.163 0-1.252-.922-2.169-2.18-2.169s-2.18.92-2.18 2.169c0 1.248.93 2.163 2.18 2.163zm0-3.697c.754 0 1.447.524 1.447 1.534 0 1-.704 1.528-1.447 1.528-.734 0-1.448-.515-1.448-1.528 0-1.001.695-1.534 1.448-1.534zm6.383-.537h-2.895v2.508c0 .248-.009.507-.139.704a.587.587 0 01-.516.268.73.73 0 01-.158-.021v.655c.072.013.145.02.218.021.556 0 .863-.28.991-.438.317-.387.317-.843.317-1.189v-1.852h1.467v3.458h.715V22.88zm4.459 0h-2.894v2.508c0 .248-.008.507-.139.704a.58.58 0 01-.515.268.731.731 0 01-.159-.021v.655c.072.013.146.02.22.021.556 0 .861-.28.989-.438.319-.387.319-.843.319-1.189v-1.852h1.465v3.458h.715V22.88h-.001zm4.401 2.734c-.099.217-.244.41-.426.566a1.25 1.25 0 01-.843.298c-.714 0-1.297-.546-1.308-1.398h3.201c.019-.545-.129-1.179-.386-1.545-.247-.358-.754-.754-1.556-.754-1.24 0-1.992.95-1.992 2.18 0 1.525 1.039 2.151 2.031 2.151.503.01.992-.172 1.367-.507.206-.19.378-.415.507-.663l-.596-.328h.001zm-2.527-1.13c.108-.613.602-1.069 1.209-1.069.606 0 1.09.426 1.209 1.07h-2.418zm4.242 2.51h.712v-3.458h1.725v-.656h-2.437v4.114zm3.15-4.113v4.4l2.814-3.035v2.748h.713v-4.43l-2.815 3.032V22.88h-.712zm4.401 4.113h.852l1.169-1.656h.437v1.656h.715V22.88h-1.439c-.405 0-.852.008-1.209.345-.227.208-.367.536-.367.923s.159.665.328.823c.298.286.742.327.793.327l-1.279 1.695zm2.458-2.252h-.675c-.17 0-.426.012-.634-.116-.179-.11-.258-.278-.258-.498a.593.593 0 01.258-.506c.149-.086.357-.107.643-.107h.665v1.227h.001zm8.969 2.252h.813l-2.965-6.929-3.04 6.929h.813l.792-1.864h2.815l.772 1.864zm-3.301-2.559l1.131-2.645 1.112 2.645h-2.243zm5.166-1.555v1.835c0 .414-.031.801-.17 1.087-.14.286-.405.528-.763.537v1.745h.656v-1.09h3.129v1.09h.654v-1.745h-.616v-3.459h-2.89zm2.18 3.459h-1.963c.387-.337.495-.783.495-1.257v-1.546h1.468v2.803zm2.08-3.459v4.114h1.775c.327 0 .723-.089.972-.278.23-.178.426-.497.426-.932 0-.319-.098-.575-.324-.793a1.078 1.078 0 00-.517-.277.925.925 0 00.447-.826.942.942 0 00-.357-.77c-.286-.232-.643-.24-.861-.24l-1.561.003zm.714 1.675v-1.04h.634c.218 0 .405-.01.575.098a.463.463 0 01.198.396.494.494 0 01-.198.426c-.158.11-.387.12-.456.12h-.753zm0 1.806v-1.21h.911c.199 0 .467.01.644.149a.564.564 0 01.208.463.598.598 0 01-.238.456c-.177.13-.445.139-.643.139l-.882.004zm5.471.754c1.25 0 2.179-.912 2.179-2.163s-.921-2.168-2.179-2.168c-1.259 0-2.178.92-2.178 2.168 0 1.248.931 2.163 2.178 2.163zm0-3.697c.751 0 1.446.524 1.446 1.534 0 1.001-.703 1.529-1.446 1.529-.733 0-1.447-.515-1.447-1.529 0-1.001.695-1.534 1.447-1.534zm3.27-.536v4.112h.713v-1.597l.218-.209 1.605 1.807h.933l-2.002-2.279 1.784-1.835h-.872l-1.668 1.687V22.88h-.711zm7.333.584a1.702 1.702 0 00-1.407-.682c-1.05 0-2.002.732-2.002 2.15 0 1.448.963 2.18 2.002 2.18a1.735 1.735 0 001.407-.694v.574h.714V22.88h-.714v.585zm-1.326-.047c.634 0 1.367.463 1.367 1.525 0 .814-.496 1.537-1.367 1.537-.852 0-1.35-.664-1.35-1.546 0-1 .645-1.516 1.35-1.516zm6.084.12v-.659h-3.289v.655h1.289v3.459h.713v-3.458l1.287.002zm2.676 3.577c1.248 0 2.181-.912 2.181-2.163s-.923-2.168-2.181-2.168c-1.259 0-2.181.92-2.181 2.168 0 1.248.933 2.163 2.181 2.163zm0-3.697c.754 0 1.447.524 1.447 1.534 0 1.001-.704 1.529-1.447 1.529-.733 0-1.448-.516-1.448-1.529 0-1.001.695-1.534 1.448-1.534zm3.271-.536v4.111h1.773c.325 0 .723-.089.973-.278.229-.178.426-.497.426-.932 0-.319-.099-.575-.324-.793a1.084 1.084 0 00-.515-.277.931.931 0 00.442-.824.956.956 0 00-.357-.771c-.288-.232-.645-.238-.863-.238l-1.555.002zm.713 1.674v-1.042h.635c.217 0 .406-.01.573.098a.462.462 0 01.199.396.492.492 0 01-.199.426c-.158.11-.386.12-.456.12l-.752.002zm0 1.806V25.15h.913c.197 0 .466.01.645.149a.57.57 0 01.208.463.584.584 0 01-.068.255.586.586 0 01-.171.2c-.178.132-.446.14-.644.14l-.883.006z" fill="#fff"/></svg>