<svg width="27" height="33" fill="none" xmlns="http://www.w3.org/2000/svg"><path d="M25.227 3.252a45.264 45.264 0 01-4.942-.625A32.36 32.36 0 0114.302.598a1.734 1.734 0 00-1.318 0 32.784 32.784 0 01-6.07 1.83c-1.644.248-3.3.405-4.96.468A1.899 1.899 0 00.133 4.683c-.217 3.641-.451 12.14 1.777 17.134 3.556 7.951 8.966 10.405 10.666 10.986a1.64 1.64 0 001.058 0c1.734-.537 7.206-2.8 11.012-10.64C27.032 17.248 27.075 8.742 26.97 5.1a1.89 1.89 0 00-1.742-1.847z" fill="#FFA61D"/><path d="M6.931 2.384a44.57 44.57 0 01-4.96.469 1.899 1.899 0 00-1.82 1.786c-.218 3.642-.452 12.14 1.777 17.134 3.555 7.952 8.966 10.406 10.665 10.987.246.08.508.102.764.06V.504a1.353 1.353 0 00-.373.07A32.785 32.785 0 016.93 2.383z" fill="#B26D02"/></svg>